<svg viewBox="0 0 5338 2667" xml:space="preserve" style="fill-rule:evenodd;clip-rule:evenodd;stroke-linecap:round" xmlns="http://www.w3.org/2000/svg"><path style="fill:none" d="M.028 0h5333.33v2666.67H.028z"/><clipPath id="a"><path d="M.028 0h5333.33v2666.67H.028z"/></clipPath><g clip-path="url(#a)"><path d="m-66.781-67.978 5460.19 6.956 28.957 2607.98-5470.77 25.256" style="fill:#228be6;fill-rule:nonzero"/><path d="m3130.38 1428.26 391.789 53.997 117.265 20.236-285.21 110.362-54.001 7.61-15.328 28.356 120.418 66.717 468.199 155.122 48.165 25.741-500.743-17.034-41.107 2.309 364.826 295.597 1.92 43.056-154.219-66.365-288.193-123.132-60.851-14.868 138.561 346.009-27.951 13.108 7.274-4.532-111.321-44.135-196.417-204.634-79.209-30.029 89.781 370.6-354.86-366.624-113.709-92.201 2.893 107.693 14.008 193.22-25.922 111.106-32.081 77.555-19.219 1.362-75.198-119.319-189.373-374.875-40.567-60.51-10.136 7.217-84.412 41.98-342.248 163.15 55.424-53.724 47.767-161.843 43.891-124.012 10.239-53.198-476.98 109.306-75.613 13.114 10.367-19.517 384.267-229.493 40.468-58.964-576.71-86.116-124.505-50.564 475.706-77.153 127.424.204-538.24-250.058-82.512-71.157 626.878 71.597 116.135 16.322-468.652-449.823 592.451 311.669 116.623 21.787-37.437-109.408-187.392-337.168-7.371-83.117 547.977 480.533 129.846 73.116 47.575-72.818 46.458-329.936 4.153-58.546 114.469 181.756 153.62 393.8 28.309 35.6 97.045 5.322 466.461-133.871-99.572 68.439-286.534 310.775" style="fill:#e64980"/><path d="m2937.73 1483.5 305.6 15.413 108.101 6.285-203.815 94.109-38.59 5.438-10.954 20.264 86.053 47.677 334.582 110.852 34.42 18.395-357.839-12.172-29.376 1.649 260.71 211.238 1.372 30.769-110.207-47.425L3111.84 1898l-43.485-10.625 99.018 247.263-19.974 9.367 5.197-3.238-79.551-31.54-140.362-146.235-56.604-21.458 64.158 264.835-253.588-261.995-81.258-65.888 2.067 76.959-28.097 138.078-18.524 79.398-22.925 55.422-13.734.974-53.738-85.268-97.222-267.891-28.989-43.241-7.244 5.157-60.322 30-244.576 116.589 39.607-38.392 34.135-115.656 31.365-88.62 7.317-38.016-340.857 78.112-54.034 9.371 7.409-13.947 274.603-163.999 28.918-42.137-337.994-73.955-88.973-36.134 301.421-50.406 50.386-27.378-272.317-122.084-58.964-50.849 340.726 29.763 49.421-21.305-301.335-288.481 423.374 222.723 57.437-5.192-.849-57.424-115.343-241.853-5.268-59.397 373.023 344.305 92.79 52.25 33.998-52.037 33.2-235.778 2.967-41.837 81.802 129.885 59.855 297.523 20.23 25.44 69.351 3.803 333.339-95.666-71.156 48.908-204.761 222.084" style="fill:#ef89ae"/><path d="M3125.28 1443.23c81.716 8.407 417.249 30.196 491.4 42.066 74.115 11.905 5.644 3.077-46.552 29.291-52.283 26.217-235.236 97.446-266.799 127.998-31.613 30.521-23.201 11.97 77.186 55.224 100.475 43.252 452.718 168.221 525.399 204.294 72.681 36.073-8.911 13.412-89.277 12.11-80.331-1.336-338.908-28.415-392.814-20.024-53.871 8.357 15.818 20.543 69.504 70.168 53.736 49.657 228.755 193.888 252.675 227.681 23.956 33.759-25.19 3.805-109.17-24.987-83.995-28.856-331.071-136.851-394.682-148.026-63.661-11.207-12.4 22.766 12.818 80.851 25.182 58.117 130.915 227.455 138.349 267.787 7.433 40.333-31.207 19.163-93.813-25.887-62.554-45.018-233.709-214.591-281.705-244.282-47.995-29.691-16.294 10.545-6.301 66.168 10.028 55.589 66.023 225.379 66.416 267.499.48 42.117 11.592 52.938-63.834-14.756-75.389-67.729-321.755-337.023-388.452-391.582-66.696-54.56-5.126-7.591-11.74 64.161-6.701 71.755-10.126 313.311-28.343 366.331-18.166 53.052-25.265 30.253-80.705-48.053-55.526-78.304-191.78-352.637-252.085-421.878-60.305-69.242-39.287-21.512-109.708 6.397-70.386 27.876-263.335 144.177-312.852 160.928-49.481 16.717-1.204.26 15.844-60.587 17.063-60.783 88.913-254.772 86.523-304.337-2.338-49.535-10.845-9.492-100.707 7.036-89.898 16.562-385.455 95.799-438.592 92.332-53.136-3.467 49.046-65.194 119.859-113.136 70.85-47.974 269.149-137.941 305.027-174.674 35.965-36.735 23.925-16.913-89.481-45.666-113.369-28.786-515.171-101.428-590.881-126.92-75.624-25.494 41.913-14.199 136.843-26.005 94.981-11.774 367.056-29.893 432.963-44.801 65.906-14.907 55.24 2.204-37.453-44.712-92.643-46.886-447.136-193.675-518.47-236.697-71.284-42.991-12.031-28.992 90.717-21.279 102.733 7.648 438.234 65.241 525.827 67.425 87.592 2.185 55.953 12.75-.408-54.347-56.273-67.099-294.014-293.941-337.459-348.275-43.409-54.369-26.962-24.386 76.862 22.2 103.788 46.619 454.152 225.475 545.993 257.317 91.878 31.808 37.591 15.916 5.028-66.395-32.527-82.344-183.244-366.724-200.196-427.508-16.951-60.784-4.126-18.085 98.489 62.805 102.614 80.889 415.077 349.945 517.181 422.467 102.104 72.523 71.545 77.81 95.463 12.572 23.918-65.238 26.495-350.304 48.181-403.971 21.634-53.699 33.937-6.877 81.816 81.838 47.914 88.682 156.968 365.309 205.577 450.418 48.608 85.109-4.475 74.011 86.173 60.298 90.685-13.746 390.962-133.185 457.775-142.704 66.812-9.519-5.216 18.792-56.847 85.621-51.63 66.828-211.877 264.915-253.007 315.419m18.307 3.52c84.453 5.367 404.035 2.865 470.506 13.964 66.557 11.096-16.835 20.766-71.526 52.557-54.64 31.823-224.463 110.559-256.414 138.318-31.865 27.756-33.73-9.824 64.741 28.199 98.522 38.054 447.527 162.034 526.151 200.034 78.661 37.967 24.476 27.192-54.215 28.029-78.691.838-356.188-32.582-417.857-23.07-61.669 9.512-9.442 28.916 47.879 80.107 57.285 51.224 268.748 192.782 295.96 227.041 27.263 34.291-49.404 6.379-132.622-21.39-83.131-27.771-304.928-132.074-366.406-145.328-61.442-13.288-23.924 9.804-2.319 65.67 21.555 55.834 123.945 229.729 131.936 269.46 7.94 39.699-21.167 11.719-84.054-31.171-62.837-42.858-240.818-197.183-293.19-226.007-52.336-28.858-29.245.816-20.97 52.996 8.326 52.211 70.436 217.924 70.752 260.274.331 42.414 6.321 57.645-68.826-6.046-75.132-63.627-313.26-322.642-382.06-375.939-68.837-53.262-23.925-15.467-30.922 56.329-6.996 71.795.004 323.473-11.11 374.412-11.099 51.003.193 15.614-55.53-68.587-55.722-84.201-212.851-365.963-278.871-436.714-66.021-70.751-51.112-20.608-117.302 12.177-66.19 32.784-236.217 163.993-279.821 184.596-43.64 20.637-1.396 1.309 18.154-60.779 19.585-62.122 100.721-258.74 99.163-311.85-1.507-53.078-17.873-23.749-108.308-6.684-90.434 17.066-381.926 105.52-434.298 109.076-52.409 3.589 54.549-40.821 119.904-87.67 65.407-46.818 240.606-157.132 272.415-193.365 31.758-36.264 28.537 4.192-81.628-24.127-110.216-28.349-503.935-120.022-579.476-145.91-75.628-25.885 32.592 3.072 125.934-9.376 93.341-12.447 373.025-46.39 434.08-65.276 61.09-18.92 22.987-.16-67.68-48.109-90.753-47.947-407.132-195.106-476.494-239.583-69.362-44.477-43.948-36.093 60.422-27.217 104.371 8.876 474.941 76.616 565.868 80.57 90.876 3.922 44.004 14.244-20.409-56.909-64.413-71.153-319.731-313.73-365.999-370.076-46.319-56.377-19.526-18.487 88.253 31.971 107.829 50.49 459.918 235.071 558.656 270.869 98.651 35.801 61.883 26.221 33.531-56.17-28.301-82.359-187.228-376.334-203.554-438.179-16.275-61.813 7.198-14.964 105.714 67.242 98.603 82.203 386.875 356.733 485.486 426.056 98.698 69.321 81.769 56.927 106.427-10.189 24.657-67.117 17.973-339.152 41.467-392.542 23.51-53.325 51.807-15.345 99.408 72.367 47.565 87.746 139.148 367.809 186.055 454.04 46.872 86.264.513 73.517 95.173 63.545 94.695-10.005 408.127-111.536 472.913-123.577 64.838-12.01-25.81-6.906-83.92 51.39-58.023 58.294-217.662 244.201-264.355 298.343" style="fill:none;stroke:#000;stroke-width:18.66px"/><path d="M2956.97 203.293c-192.911 368.679-384 738.37-578.051 1106.415l-64.367 108.828c10.064 39.424 11.642 82.285 38.911 114.742 13.149 16.91 21.566 43.675 37.595 54.585 30.224-.708 62.737-16.9 90.032 2.191 26.836 12.853 53.586 26.064 84.233 22.975 20.97-2.606 48.923 10.21 65.288-2.564 194.162-247.104 390.012-492.971 583.118-740.849 77.523-114.198 154.9-228.497 233.061-342.261 1.926-57.007 3.394-114.036-1.421-170.952-59.21-41.125-115.253-87.464-176.527-125.191-49.965-27.046-105.78-42.24-159.504-58.911-60.132.754-119.623 12.048-179.423 17.699" style="fill:#fff"/><path d="M2973.506 234.415c45.074-5.613 89.33-18.077 129.443-39.657l2.969-1.522m-140.943 57.5c50.775-17.07 99.8-38.844 149.568-58.554m-135.333 97.8c44.986-31.567 104.692-32.195 146.743-68.717m-152.152 49.79c53.417-15.199 106.612-31.905 157.63-53.992m-139.258 89.864c58.994-14.992 114.362-41.492 169.852-65.939m-198.171 74.32c58.509-11.292 112.103-38.914 168.908-56.027a1689.808 1689.808 0 0 1 48.727-15.228m-184.026 103.894c36.307-12.215 69.67-32.026 106.391-43.37 42.157-14.521 85.658-24.827 129.451-33.009m-230.878 69.609c71.277-30.058 146.273-50.822 221.817-66.947m-191.571 95.001c26.183-1.603 47.75-19.276 71.083-29.57 44.175-22.731 91.42-39.533 140.376-48.267m-218.622 79.493c62.307-20.921 122.89-46.744 185.239-67.63a4187.422 4187.422 0 0 1 52.645-17.932m-219.82 122.564c74.621-44.752 157.867-70.781 241.291-93.544m-244.105 82.329c84.212-27.375 170.755-48.071 252.51-82.652 4.27-1.752 8.53-3.528 12.779-5.328m-240.682 99.742c76.378-9.325 149.397-35.137 223.038-56.292 19.634-5.925 39.26-11.88 58.885-17.835m-285.011 90.355c57.995-25.925 121.64-34.4 182.192-52.439 31.735-8.757 63.231-18.37 94.497-28.677m-254.228 119.73c95.153-34.17 186.655-77.366 278.746-118.848m-255.403 106.4c82.548-25.877 163.613-56.298 245.624-83.808m-206.271 110.586c52.623-18.784 102.695-44.205 155.673-62.19 23.412-8.426 47.065-16.187 70.936-23.212m-227.582 81.207c82.687-22.141 162.69-52.974 244.792-77.042M3175.839 497.18c83.594-18.89 165.286-44.943 247.767-67.999m-238.275 65.891c76.145-20.412 149.83-48.712 224.715-73.111m-168.553 89.313c52.24-1.166 100.566-22.786 146.661-45.324 18.598-8.555 37.61-16.3 57.257-22.111M3253.43 516.79c43.572-8.794 81.952-33.19 124.784-44.68 21.202-6.51 42.81-11.647 64.604-15.733m-101.002 55.004c36.688-2.88 71.866-14.054 107.673-21.69m-125.791 29.938c40.495-14.562 82.98-22.22 124.158-34.469" style="fill:none;fill-rule:nonzero;stroke:#ced4da;stroke-width:4.35px"/><path d="M2912.665 301.606c7.075-25.613 29.81-54.875 59.7-52.138m-65.118 46.181 50.17-50.643m-87.541 140.59c31.455-47.977 72.388-89.611 119.407-122.425m-129.684 114.705c34.822-41.499 82.487-69.025 119.129-108.651M2811.46 460.171c60.478-39.27 110.626-91.732 169.154-133.576m-158.402 134.518c53.739-50.591 108.518-100.24 158.41-154.728M2778.25 560.386c63.85-79.927 135.09-154.468 215.993-217.353m-214.998 203.802c79.037-66.618 158.644-133.506 226.24-212.136m-252.29 279.467c85.457-94.214 188.71-169.713 292.013-242.932m-307.731 250.954c106.918-77.766 198.643-173.817 302.202-255.697m-358.003 343.717c128.721-104.753 248.034-220.618 378.942-322.746m-359.292 324.392c122.673-110.835 246.316-220.601 371.227-328.91m-422.907 420.002c150.519-140.653 309.258-272.165 460.277-412.267M2647.098 803.32c145.697-131.201 290.734-263.137 437.022-393.681m-460.731 475.562c154.044-166.804 327.205-314.55 503.669-456.897M2610.746 890.11c166.026-155.207 341.454-300.219 502.963-460.275m-555.926 535.068c195.79-182.157 403.633-350.714 602.391-529.541m-595.556 537.083c207.519-161.904 393.986-348.32 582.737-531.144M2520.78 1062.22c210.077-212.245 440.363-402.935 668.701-594.904m-666.882 586.544c223.502-192.05 442.395-389.563 653.754-594.938m-687.668 691.073c241.65-227.294 479.098-459.455 732.767-673.533m-734.539 658.311c231.894-229.944 485.274-436.521 734.458-647.097m-795.638 738.767c276.413-239.016 558.658-472.125 817.085-730.972m-802.841 726.224c270.651-239.953 536.13-485.642 803.106-729.653m-836.179 793.978c299.923-251.117 606.36-495.428 886.738-768.766m-891.926 778.096c283.297-268.093 575.887-526.199 872.765-779.109m-951.145 906.056c326.356-301.073 664.328-589.473 984.402-897.358m-974.064 891.276c329.678-289.689 654.188-585.186 982.617-876.28m-967.117 907.864c330.316-295.364 667.918-582.812 987.527-889.942m-995.363 886.087c345.82-287.164 677.91-590.447 1003.8-899.911m-987.249 921.239c362.318-325.288 726.422-648.622 1095.3-966.467m-1094.15 981.433c355.6-337.925 721.112-665.624 1100.32-976.914m-1074.2 1005.7c316.368-304.528 656.964-582.213 988.485-869.74m-991.311 866.483c327.925-296.999 654.266-595.852 989.365-884.796m-960.822 911.084c278.726-262.617 553.35-530.633 853.433-769.227m-861.057 763.382c289.727-254.966 579.68-509.697 866.315-768.144m-848.378 791.667c256.952-229.04 519.938-451.221 785.706-669.937m-785.215 681.136c249.3-238.211 510.791-463.134 770.003-690.367m-734.022 697.31c213.684-175.015 421.502-357.055 627.152-541.4m-643.074 549.308c209.78-193.093 425.625-379.695 649.043-556.872m-616.114 571.535c174.605-137.154 335.953-290.826 516.864-419.997m-503.239 424.859c162.158-148.81 327.126-294.513 490.641-441.821m-448 447.427c113.16-98.045 222.184-202.356 349.288-282.666m-356.59 289.006c109.039-111.697 231.657-208.777 353.271-306.181m-285.361 300.739c57.253-53.042 109.512-111.182 167.2-163.772m-183.415 177.035c63.899-56.723 124.065-117.81 192.198-169.638" style="fill:none;stroke:#ced4da;stroke-width:4.35px"/><path d="M3358.09 340.218c29.526 24.8 62.818 48.787 80.066 84.321 10.755 30.073-4.77 64.396-27.31 84.714-34.686 24.801-79.826 14.268-118.176 5.791-69.84-18.09-143-34.96-200.878-80.596-53.378-38.58-96.932-90.196-125.158-149.751-8.738-20.137-24.394-43.083-13.84-65.258 17.94-23.013 48.93-29.68 76.296-34.503 47.113-8.583 95.112 3.532 137.47 24.247 59.384 26.807 113.88 63.578 161.843 107.603 25.104 23.112 51.847 44.81 75.308 69.476.117 1.855-2.987-.979-2.913-.532m-330.909-185.143c47.3-2.443 99.144-4.99 139.548 24.355 48.155 32.736 87.906 76.032 135.469 109.604 32.555 23.306 61.31 53.509 75.168 91.73 8.36 23.774 17.594 49.41 13.324 74.836-7.453 21.726-35.036 20.506-53.95 21.402-59.116-1.881-118.582-9.75-175.227-27.102-55.37-16.963-90.581-65.931-136.589-97.84-39.927-29.929-81.355-61.514-103.658-107.555-8.784-19.064-21.85-39.612-18.013-61.33 14.049-15.924 39.272-15.218 58.65-21.86 24.161-5.768 49.79-6.527 73.115-14.907-.227-5.352-14.807-8.054-18.59-5.425" style="fill:none;fill-rule:nonzero;stroke:#000;stroke-width:20.53px"/><path d="M2958.67 210.312c-91.331 183.421-450.756 889.277-552.909 1091.43-102.203 202.194-65.272 79.482-60.104 121.534 5.205 42.1 48.882 104.178 91.167 131.002 42.29 26.781 115.331 43.875 162.644 29.825 47.308-14.006-13.934 60.381 121.17-113.956 135.152-174.376 593.76-776.83 689.512-932.194 95.794-155.358-50.676 29.314-114.879.071-64.197-29.287-212.49-120.01-270.321-175.662-57.782-55.69-63.879-131.138-76.518-158.365m.923-3.433c-92.497 180.553-448.343 879.021-549.555 1085.11-101.169 206.096-64.791 105.104-57.631 151.445 7.197 46.39 54.537 102.142 100.696 126.789 46.122 24.599 128.074 38.189 176.266 21.052 48.149-17.143-19.111 47.089 112.773-124.023 131.926-171.106 581.376-749.351 678.652-902.59 97.277-153.239-28.672 17.407-95.037-16.849-66.365-34.256-243.121-131.746-303.153-188.689-60.033-56.944-46.579-128.61-56.995-153.009" style="fill:none;stroke:#000;stroke-width:18.25px"/><path d="M944.109 2288.65c17.972-.24 16.571-20.332 15.826-33.09l-6.71-544.152c-.745-18.73-21.583-16.106-34.522-13.734l-117.807 13.428c-19.722 4.037-13.271 26.794-15.293 41.402l-6.031 151.135c-14.629-5.77-53.051 12.505-50.332-10.792-.912-66.406-.928-132.867-2.4-199.238-5.024-18.397-26.111-10.815-39.83-10.7l-145.425 11.261c-20.295 3.253-13.644 26.14-14.693 40.625.948 189.067 1.066 378.177 2.533 567.217 5.65 18.456 26.996 11.449 41.421 13.455l111.533 3.108c20.693-1.247 16.088-24.823 18.353-39.216l15.998-194.849h48.473c-2.416 63.326-5.7 126.66-7.575 189.98 4.277 18.877 26.333 12.192 40.36 13.503l146.121.657z" style="fill:#fff"/><path d="M720.897 2088.83h40.139l-7.766 187.093a15.967 15.967 0 0 0 15.885 16.629l179.121.768a15.966 15.966 0 0 0 16.034-16.16l-6.919-570.42a15.965 15.965 0 0 0-17.672-15.682l-142.99 15.375a15.967 15.967 0 0 0-14.247 15.24l-7.077 177.628-41.886-.001-2.143-207.138a15.965 15.965 0 0 0-17.143-15.758l-176.815 13.068c-8.362.619-14.822 7.6-14.79 15.986l2.307 598.095c.033 8.631 6.919 15.673 15.547 15.9l146.064 3.844c8.471.223 15.641-6.211 16.334-14.657l18.017-219.81Zm-.259-29.166c-15.167 0-27.793 11.644-29.017 26.762l-16.79 207.386-120.779-3.179-2.21-572.98 150.515-11.125 1.937 187.274c.245 23.723 16.04 34.665 29.225 34.665h41.886c15.657 0 28.52-12.361 29.144-28.005l6.623-166.247 117.231-12.605 6.58 542.486-152.003-.652 7.141-173.467a29.116 29.116 0 0 0-29.091-30.313h-40.392Z"/><path d="M1501.52 1800.28c11.653-17.505-10.4-29.562-19.472-42.055l-65.935-72.495c-17.07-15.129-29.717 8.011-40.36 18.79l-137.64 154.132c-40.438-49.337-79.533-99.936-120.82-148.476-15.034-6.456-30.28 4.995-45.26 7.843-31.56 10.125-63.482 19.273-94.817 30.012-17.126 11.102-1.526 28.377 6.814 39.425l153.29 212.226 1.512 303.57c2.323 22.117 26.884 14.37 41.877 14.301l135.061-8.434c21.268-3.26 13.394-27.011 13.544-41.823l-14.329-246.634 186.535-220.382z" style="fill:#fff"/><path d="M1505.68 1800.28c5.187-6.128 5.017-15.155-.398-21.084l-89.176-97.632a15.969 15.969 0 0 0-23.699.133l-154.301 172.788-117.341-145.279a15.97 15.97 0 0 0-16.903-5.293l-131.457 38.438a15.968 15.968 0 0 0-8.433 24.717l169.174 232.614 1.513 307.737a15.963 15.963 0 0 0 16.913 15.86l168.358-9.994c8.79-.521 15.498-8.06 14.995-16.851l-15.78-275.772 186.535-220.382Zm-267.574 83.372c-8.663 0-18.612-4.795-23.978-12.592a45.649 45.649 0 0 1-1.998-2.316l-108.527-134.367-105.01 30.705 158.141 217.445a29.169 29.169 0 0 1 5.329 13.342s.253 4.386.292 12.286l1.401 285.183 141.297-8.388-15.027-262.622a29.164 29.164 0 0 1 9.196-22.968l176.702-209.058-71.497-78.277s-111.333 124.72-138.472 155.064c-7.201 8.05-15.37 16.563-27.849 16.563Z"/><path d="M1877.56 1910.23c3.427-53.442 12.387-113.473-21.123-159.929-22.726-32.771-59.409-53.84-98.793-58.904-73.192-12.238-147.856-12.045-221.815-10.492-17.702 4.846-11.357 25.584-12.55 39.142l-.74 582.66c.134 17.18 19.292 16.625 31.708 16.514 42.396 1.17 84.81 3.24 127.194 3.849 18.39-4.231 12.146-25.607 13.334-39.34l1.075-223.305c35.002-9.219 72.25-12.865 105.048-28.694 41.964-26.515 68.14-73.4 76.662-121.501zm-202.798-.856.361-104.92c22.352 1.343 55.644 2.976 61.742 29.515 10.53 21.588 7.14 48.291-8.114 66.709-15.054 10.918-36.307 9.023-53.989 8.696z" style="fill:#fff"/><path d="M1881.73 1910.23c.85-6.676 3.759-56.66 3.759-70.296 0-57.52-23.685-101.914-70.954-133.236-13.799-9.24-37.788-16.947-72.293-22.043-47.647-7.039-116.781-9.845-207.405-8.288-8.702.15-15.682 7.241-15.693 15.945l-.768 610.395c-.011 8.65 6.867 15.735 15.513 15.981l148.522 4.613a15.965 15.965 0 0 0 16.421-16.003l1.188-242.706c47.263-10.618 90.264-19.785 101.854-26.727 69.016-41.336 79.856-127.635 79.856-127.635Zm-211.999 383.496-122.173-3.794.737-584.59c82.207-1.064 145.433 1.629 189.685 8.166 28.667 4.235 48.862 9.748 60.327 17.425l.117.078c38.627 25.596 57.899 61.919 57.899 108.923 0 12.92-2.721 60.285-3.526 66.611 0 0-8.575 71.959-65.909 106.298-10.58 6.337-50.117 13.599-93.261 23.291-13.261 2.98-22.707 14.724-22.774 28.315l-1.122 229.277Zm-19.965-388.627c-.058 15.359 11.807 28.131 27.129 29.204 28.574 2.001 43.996-2.12 56.696-8.62 9.698-4.963 18.405-14.29 24.432-25.94 6.581-12.722 10.015-28.026 10.578-37.031.496-7.941-5.635-30.993-12.263-45-5.546-11.718-13.197-18.581-16.573-20.563-28.052-16.469-44.061-17.545-60.204-17.694a29.168 29.168 0 0 0-29.435 29.057l-.36 96.587Zm29.166.109.361-96.588c12.273.113 24.377 1.16 45.706 13.681 3.973 2.333 14.981 30.773 14.492 38.592-.645 10.325-7.044 32.612-19.188 38.826-9.242 4.73-20.577 6.945-41.371 5.489Z"/><path d="M2275.72 2172.94c.225-17.738-19.553-17.127-32.224-16.48l-160.175-.637.868-91.23 121.172-15.473c18.657-4.499 12.78-26.198 15.01-40.41.418-20.774 3.966-41.785 2.198-62.397-7.258-15.58-26.912-9.351-40.644-11.837l-109.967-6.059-.818-77.758 126.055-12.883c19.33-4.043 13.112-26.222 14.933-40.573.81-29.85 2.492-59.714 2.76-89.556-4.026-17.995-25.17-12.56-38.714-14.434-86.993-4.056-173.988-8.993-260.98-12.499-18.657 3.964-12.479 25.617-13.687 39.416l-4.431 582.916c.15 17.792 19.968 16.72 32.643 15.721 111.195-2.666 222.447-4.529 333.607-7.697 18.58-5.994 10.893-27.33 12.486-41.874l-.092-96.256z" style="fill:#fff"/><path d="M2279.89 2168.78a15.966 15.966 0 0 0-15.89-16.415l-176.51-.703.869-82.897 121.172-15.472a15.967 15.967 0 0 0 13.583-15.206l4.612-89.784c.317-8.645-6.309-15.969-14.943-16.518l-136.655-7.529-.818-69.425 126.054-12.882a15.968 15.968 0 0 0 14.065-15.343l3.843-119.927c.28-8.716-6.486-16.044-15.197-16.46l-289.822-13.838a15.966 15.966 0 0 0-16.729 15.829l-4.612 615.008a15.968 15.968 0 0 0 16.312 16.083l355.167-7.687c8.508-.184 15.377-7.009 15.615-15.516l-.116-131.318Zm-93.243-354.642 3.058-95.405-263.118-12.563-4.407 587.678 328.648-7.114-.093-105.255-163.361-.651.609-2.925c-6.75.975-12.021.551-12.021.55-11.317-4.869-18.198-16.22-17.599-28.212l-.013-1.206c.14-13.429.844-67.145.844-80.575 0-8.622 5.356-25.691 28.864-29.06.99-.142 106.482-13.59 106.482-13.59l3.374-65.633s-113.196-6.798-123.391-6.798c-10.195 0-17.693-7.253-17.693-7.253a29.099 29.099 0 0 1-9.851-22.364l-.039-1.106-.795-67.481s-1.87-27.001 29.729-29.72c110.939-9.544 110.773-11.317 110.773-11.317Z"/><path d="M2673.15 2255.05c16.198-10.013 3.397-26.977-5.823-36.619l-143.082-177.868c55.038-19.85 100.548-67.409 109.824-126.31 8.464-47.186 13.83-99.639-13.24-142.188-24.719-41.181-63.907-75.78-112.35-84.397-56.897-11.999-116.087-7.906-172.654 3.958-18.167 5.719-11.644 27.244-13.933 41.706l-25.658 550.971c-.611 17.4 18.79 17.538 31.32 17.283 40.773 1.359 81.546 3.378 122.318 4.319 17.158-2.633 13.6-21.447 11.179-33.627l-20.477-143.656 101.74 184.511c13.626 14.245 29.294-2.669 42.565-8.544l88.271-49.539zm-223.8-326.16 3.822-122.722c26.508-2.235 60.233 4.737 56.938 38.768-.975 26.42 2.854 58.34-17.356 78.728-11.837 12.444-28.829 3.952-43.404 5.226z" style="fill:#fff"/><path d="M2677.32 2255.05a15.97 15.97 0 0 0 4.459-23.837l-153.364-190.65c64.862-25.57 101.73-70.883 111.357-135.234l.002-.01c3.74-25.11 5.555-44.347 5.555-57.703 0-44.942-21.451-88.292-65.814-129.303-28.942-27.227-76.174-41.954-142.343-41.954-34.905 0-70.076 3.696-105.511 11.1a15.969 15.969 0 0 0-12.684 14.892l-26.906 581.952c-.403 8.697 6.238 16.114 14.927 16.671l143.758 9.226a15.963 15.963 0 0 0 16.989-16.04l-24.849-157.259 99.421 180.399a15.967 15.967 0 0 0 20.457 3.863l114.546-66.113Zm-66.394-354.034c-8.025 53.64-39.14 91.097-93.208 112.412a29.169 29.169 0 0 0-12.029 45.416l143.707 178.646-89.354 51.574-90.202-163.329c-5.658-13.653-20.634-20.917-34.859-16.906-14.225 4.01-23.201 18.026-20.895 32.625l21.897 138.571-114.178-7.327 25.83-558.667c30.044-5.671 59.892-8.505 89.537-8.505 56.63 0 97.589 10.729 122.358 34.031l.186.173c37.23 34.417 56.447 70.17 56.447 107.886 0 12.362-1.775 30.159-5.237 53.4Zm-72.852-28.815.139-.251.651-.618c1.405-26.828-4.425-48.67-16.759-65.711-13.723-18.962-22.654-21.402-34.813-22.682-5.02-.528-12.071.478-25.844-1.48a29.169 29.169 0 0 0-33.256 27.902l-3.823 114.388a29.167 29.167 0 0 0 29.171 30.141c12.632-.009 17.623 1.566 21.12 1.703 8.936.349 15.581.407 32.533-13.632 18.982-15.719 29.878-39.067 31.664-70.499l-.783.739Zm-84.555 52.522 3.823-114.388c28.675 4.078 29.341-3.911 41.136 12.386 8.805 12.166 12.263 27.933 11.26 47.085v.001c-1.249 21.963-7.884 38.706-21.148 49.69-13.992 11.587-8.425 5.208-35.071 5.226Zm56.2-25.769.019.019-.019-.019Z"/><path d="M2849.23 1863.79c21.138 13.699 24.693 42.417 32.936 64.6 9.116 15.896 27.021 4.112 39.877.792l103.42-34.103c22.622-18.415 1.353-54.223-2.681-78.221-18.3-56.263-58.895-109.838-118.827-124.559-56.603-15.808-123.055-3.637-163.441 41.21-51.67 56.942-70.263 135.288-79.177 209.662-8.187 89.825-10.082 185.262 28.74 268.882 23.854 53.618 74.417 97.79 134.807 100.864 62.664 5.042 129.794-19.451 166.188-72.547 29.464-42.961 48.461-94.95 48.176-147.274-7.408-15.01-26.822-11.87-40.706-16.41l-86.482-17.335c-23.43 5.798-16.398 42.86-33.971 58.993-15.563 35.348-51.43.894-55.869-23.328-4.94-51.128-5.24-102.895 5.038-153.43 5.494-26.13 6.082-55.438 21.972-77.796z" style="fill:#fff"/><path d="M2849.25 1868.18c1.67.089 3.166 1.087 4.734 2.406 2.448 2.059 4.752 4.914 7.057 8.443 7.534 11.537 14.275 29.159 20.632 52.704a15.968 15.968 0 0 0 20.464 10.985l126.846-42.281a15.968 15.968 0 0 0 10.838-16.737c-3.771-37.71-11.669-70.281-23.52-97.755l-.085-.194c-30.94-69.193-81.529-105.425-151.285-109.363l-.091-.004c-77.444-3.929-135.038 35.576-171.52 120.305-26.848 61.611-40.521 141.342-40.521 239.277 0 88.216 16.256 157.341 47.8 207.597 33.439 53.275 80.293 79.742 140.37 79.742 7.326 0 14.932-.552 22.818-1.67 73.963-7.875 126.562-48.846 157.22-123.508 12.377-29.62 20.01-64.599 22.702-104.98.532-7.98-4.922-15.122-12.761-16.711l-117.62-23.831c-8.624-1.748-17.036 3.811-18.81 12.429-4.848 23.545-10.956 41.311-18.919 53.083-5.303 7.839-11.109 12.583-18.486 12.583-1.394 0-2.783-.253-4.176-.718a16.371 16.371 0 0 0-.715-.22c-14.803-4.175-22.473-18.376-26.269-40.39a15.94 15.94 0 0 0-.132-.679c-2.44-11.22-3.48-33.671-3.48-67.334 0-31.393 2.745-63.036 8.226-94.927l.023-.136c3.542-21.726 7.686-38.123 12.763-49.105 1.185-2.562 2.394-4.764 3.687-6.574.636-.891 1.732-1.983 2.21-2.437Zm14.067-162.669c58.38 3.306 100.323 34.176 126.237 92.068 9.669 22.438 16.324 48.635 20.059 78.57l-103.655 34.551c-6.347-20.669-13.245-36.515-20.497-47.619-4.086-6.258-8.36-11.163-12.702-14.815-7.026-5.91-14.463-8.809-21.945-9.211a29.167 29.167 0 0 0-21.661 7.987c-1.285 1.222-4.142 4.234-5.852 6.629-2.225 3.117-4.381 6.868-6.421 11.28-5.862 12.678-10.976 31.518-15.067 56.591-5.761 33.534-8.638 66.807-8.638 99.817 0 36.365 1.448 60.733 4.063 73.121 6.222 35.888 22.681 56.352 46.78 63.267 4.364 1.426 8.73 2.12 13.095 2.12 16.377 0 30.873-8.006 42.644-25.407 8.058-11.912 14.963-28.779 20.41-50.71l93.506 18.945c-3.001 31.983-9.493 60.052-19.578 84.186l-.069.167c-26.079 63.512-70.41 98.885-133.327 105.584-.336.036-.671.078-1.006.125-6.471.917-12.712 1.382-18.724 1.382-49.572 0-88.074-22.121-115.666-66.081-29.158-46.456-43.337-110.547-43.337-192.092 0-93.135 12.56-169.033 38.092-227.625l.051-.117c30.688-71.274 78.076-106.002 143.208-102.713Zm-61.495 215.98-.019.112.019-.112Z"/><path d="M3468.24 2296.94c17.867-.227 16.6-20.181 15.831-32.896l-6.715-553.685c-.729-18.777-21.484-16.635-33.898-11.575-32.574 8.392-65.3 16.232-97.775 24.985-13.91 10.037-7.584 29.189-9.957 44.019l-5.865 147.222-106.772-1.719c-.95-70.123-1.003-140.302-2.511-210.39-4.922-17.85-25.9-11.268-39.597-12.672l-104.303-.754c-20.19 3.195-13.69 25.924-14.696 40.33l2.212 573.751c.912 19.032 22.017 15.907 35.32 16.384 31.583.575 63.183 1.941 94.754 2.024 18.328-4.839 12.605-26.088 15.341-40.217l15.904-194.031 99.899 3.705c-2.416 63.434-5.7 126.877-7.575 190.306 4.19 18.738 26.09 12.319 40.036 13.74l110.367 1.473z" style="fill:#fff"/><path d="m3238.9 2102.8 71.326 2.644-7.159 172.457a30.552 30.552 0 0 0 30.291 31.817l134.679 1.797.132.001a30.548 30.548 0 0 0 21.818-9.033 30.547 30.547 0 0 0 8.862-21.888l-6.919-570.42a30.552 30.552 0 0 0-33.814-30.004c-.681.073-1.356.194-2.02.362l-107.66 27.253c-14.469 2.112-25.491 14.267-26.078 29.009l-6.51 163.397-78.331-1.261-1.996-192.937a30.548 30.548 0 0 0-32.17-30.191c.056-.003-126.576-.918-126.576-.918-.394-.002-.787.011-1.18.04-16.001 1.182-28.36 14.541-28.298 30.585l2.306 598.095c.064 16.514 13.238 29.988 29.746 30.422l111.448 2.728c16.182.426 29.901-11.885 31.225-28.045l16.878-205.91Zm229.422 179.549-134.737-1.797a1.382 1.382 0 0 1-1.376-1.441l7.658-184.505a17.099 17.099 0 0 0-16.439-17.796l-97.353-3.673c-15.809-.789-15.105 13.381-15.105 13.381l-18.017 219.809a1.383 1.383 0 0 1-1.416 1.27l-111.422-2.726a1.385 1.385 0 0 1-1.346-1.378l-2.306-598.096a1.386 1.386 0 0 1 1.004-1.336c.012-.003 126.223.909 126.223.909.394.002.788-.011 1.18-.04a1.386 1.386 0 0 1 1.486 1.366l2.083 201.339c.049 4.789.17 7.448.17 7.448a14.584 14.584 0 0 0 14.238 12.782l106.739 1.719c.177.003.267.002.267.002 7.828 0 14.26-6.181 14.571-14.003l7.077-177.627a1.385 1.385 0 0 1 1.235-1.321 14.564 14.564 0 0 0 2.02-.362l106.947-27.073a1.379 1.379 0 0 1 1.062 1.329l6.919 570.42a1.38 1.38 0 0 1-1.297 1.398l-.065.002Z"/><path d="M3962.35 2318.95c21.651 1.92 19.29-22.41 14.105-36.157l-136.024-588.312c-6.052-18.254-27.579-10.94-42.11-12.668l-136.414-1.286c-19.635 1.748-16.691 24.854-21.186 38.918l-116.068 562.088c-3.225 18.948 18.318 20.307 31.683 20.462l119.746 9.409c21.034-.376 17.146-24.532 19.985-38.992L3710 2154.577l57.736-2.906 9.566 125.04c3.317 18.94 25.71 14.911 39.84 18.814l145.209 23.425zm-201.688-319.119h-29.888l18.241-110.11 11.647 110.11z" style="fill:#fff"/><path d="m3763.54 2155.89-1.682-29.163m-59.573-133.12-.027.113.012.01c-2.037 18.085 10.306 35.274 28.506 35.274h29.888a29.168 29.168 0 0 0 29.005-32.235l-11.647-110.11c-1.535-14.512-13.56-25.657-28.147-26.086-14.588-.429-27.247 9.99-29.632 24.387l-17.731 107.027-.227 1.62Zm58.379 6.23h-29.888l18.241-110.11 11.647 110.11Z"/><path d="m3765.52 2181.31 7.617 99.571a15.967 15.967 0 0 0 13.493 14.563l179.89 27.676a15.967 15.967 0 0 0 17.995-19.332l-139.914-613.471a15.968 15.968 0 0 0-15.424-12.416l-171.434-1.537a15.966 15.966 0 0 0-15.789 12.78l-121.464 596.558a15.969 15.969 0 0 0 14.466 19.109l145.296 10.763c8.523.631 16.033-5.561 17.036-14.049l16.88-142.779 49.373-2.859 1.979 25.423Zm-3.661-54.586-48.02 2.825-.602.049a29.138 29.138 0 0 0-20.539 9.407c-4.051 4.406-6.795 10.373-7.495 16.317-15.291 129.838-15.396 130.232-15.396 130.232l-117.746-8.722 116.302-571.205 150.121 1.346 133.276 584.366-150.34-23.129-8.499-111.093c-1.38-23.561-15.006-31.154-31.062-30.393Z"/><path d="M4350.73 2178.82c-.015-17.2-19.118-16.795-31.548-16.42l-164.019-3.299c5.085-147.407 10.981-294.82 15.56-442.224-3.803-18.397-24.698-12.14-38.199-12.769l-112.174 2.432c-18.8 4.51-12.266 25.885-13.457 39.974v560.821c.194 17.36 19.45 16.676 31.935 15.661 101.912-2.177 203.882-3.523 305.758-6.22 17.716-4.66 11.193-24.916 11.325-38.202l-5.181-99.754z" style="fill:#fff"/><path d="m4170.27 2144.82 15.198-423.662a30.55 30.55 0 0 0-34.205-32.038c.043-.005-131.227 2.841-131.227 2.841-.662.015-1.323.074-1.977.178-14.831 2.361-25.747 15.152-25.747 30.171v585.026a30.55 30.55 0 0 0 31.14 30.545l318.267-6.15c16.536-.32 29.814-13.74 29.959-30.278.002-.295-.004-.59-.019-.884l-6.344-122.136v.049a30.545 30.545 0 0 0-30.315-30.35l-164.73-3.312Zm165.879 33.874c-.002.295.004.589.019.884l6.328 121.821a1.39 1.39 0 0 1-1.341 1.171l-318.266 6.15a1.385 1.385 0 0 1-1.411-1.384V1722.31c0-.521.29-.983.728-1.219.007-.003 130.565-2.834 130.565-2.834a14.553 14.553 0 0 0 1.977-.178 1.384 1.384 0 0 1 1.598 1.455 14.06 14.06 0 0 0-.02.41l-15.731 438.505c-1.129 16.166 14.277 15.234 14.277 15.234l179.678 3.612.222.003a1.387 1.387 0 0 1 1.377 1.396Z"/><path d="M4800.98 1760.22c10.1-16.495-9.793-25.313-22.43-29.45l-104.959-44.286c-18.374-5.745-24.498 16.151-33.938 27.127l-114.327 165.631 6.194-147.917c-2.512-19.75-25.646-15.065-39.932-18.368-37.096-4.325-74.125-9.795-111.263-13.409-18.433 2.82-13.163 23.84-13.658 37.055l5.785 519.837c2.105 19.897 25.001 14.923 39.132 17.315l88.293 7.18c20.957-.377 16.076-23.543 16.478-37.591l-.296-84.522c42.763 50.768 84.585 102.44 127.938 152.642 15.133 10.236 25.195-7.785 32.7-18.213l79.457-107.81c9.85-16.585-10.486-27.224-19.179-38.704l-119.41-126.473 183.415-260.044z" style="fill:#fff"/><path d="m4517.25 2172.36.353 101.506a15.967 15.967 0 0 1-16.904 15.02l-115.081-9.426c-8.361-.506-14.91-7.386-15.002-15.762l-6.151-556.582a15.97 15.97 0 0 1 17.555-16.064l136.606 17.114c8.046.804 14.22 7.496 14.376 15.58l-6.324 152.097 131.82-192.354a15.967 15.967 0 0 1 19.539-5.851l123.002 52.276a15.966 15.966 0 0 1 7.045 23.544l-187.241 267.391 139.082 148.377c6.253 5.448 7.294 14.775 2.397 21.467l-92.251 126.077a15.967 15.967 0 0 1-24.898 1.09l-127.936-154.435.013 8.935Zm22.473-27.592 116.823 141.094 75.725-103.491-132.708-141.575c-10.27-11.371-10.932-25.576-2.556-36.757l177.624-253.657-98.057-41.674-125.836 183.623a29.168 29.168 0 0 1-24.06 12.678c0 .001-29.139-1.928-29.139-30.423 0-28.496 5.776-138.945 5.776-138.945l-109.518-13.727 5.851 529.431 88.735 7.274-.331-95.195s-2.138-19.014 19.184-26.713c19.825-7.158 32.487 8.057 32.487 8.057Z"/></g></svg>