<svg viewBox="0 0 300 28" xmlns="http://www.w3.org/2000/svg" xml:space="preserve" style="fill-rule:evenodd;clip-rule:evenodd;stroke-linejoin:round;stroke-miterlimit:2"><path d="M22.221-1.541c-.167.56-.429.84-.788.84-.179 0-.492-.096-.94-.288-.448-.192-.8-.288-1.056-.288-.218 0-.423.048-.615.144v-.84l3.399.432Zm1.363 16.536a1.994 1.994 0 0 0-.307-.024c-.423 0-.989.228-1.7.684-.71.456-1.244.684-1.603.684-.384 0-.768-.168-1.152-.504.039-.272.282-.424.73-.456.512-.048.838-.176.979-.384.102.144.25.216.442.216.358 0 .774-.216 1.248-.648l.345-.408c-.192-.864-.621-1.296-1.286-1.296-.205 0-.499.052-.883.156-.384.104-.634.156-.749.156-.295 0-.442-.184-.442-.552 0-.32.103-.8.307-1.44l-2.38-3.408c-.218-.032-.49.18-.816.636-.327.456-.567.684-.72.684-.167 0-.333-.152-.5-.456-.153.304-.32.456-.499.456-.115 0-.288-.084-.518-.252-.231-.168-.403-.252-.519-.252-.179 0-.345.152-.499.456.717.368 1.075 1.024 1.075 1.968 0 .224-.019.56-.057 1.008-.039.448-.058.784-.058 1.008 0 .256.019.488.058.696.089.016-.288.024-1.133.024-.41 0-.71-.152-.902-.456a.55.55 0 0 1-.02-.144c0-.096.122-.328.365-.696-.269-.08-.717-.312-1.344-.696-.55-.336-1.011-.528-1.382-.576.243-.96.365-1.552.365-1.776 0-.112-.007-.232-.02-.36-.294-.288-.48-.432-.556-.432a.459.459 0 0 0-.135.024l.691-.864c-.294-.288-.48-.432-.556-.432a.459.459 0 0 0-.135.024l2.055-1.272c-.295-.304-.48-.456-.557-.456a.464.464 0 0 0-.135.024v-.432l1.018.864 1.018-1.704c-.154-.064-.474-.32-.96-.768-.41-.352-.743-.528-.999-.528-.269 0-.518.152-.749.456a.937.937 0 0 1-.019-.168c0-.096.122-.328.365-.696-.09-.224-.243-.36-.461-.408h-.576c-.013.064-.019-.264-.019-.984 0-.368.122-.608.365-.72l1.363.432c.115-.176.269-.584.461-1.224.166-.528.352-.832.557-.912.012.064.019.12.019.168 0 .096-.122.328-.365.696.218.24.653.272 1.306.096.652-.176 1.126-.072 1.42.312-.153.192-.371.288-.652.288-.077 0-.189-.008-.336-.024a3.366 3.366 0 0 0-.317-.024c-.435 0-.679.344-.73 1.032-.013.576.256.864.807.864.064 0 .153-.008.268-.024h.269c.499 0 .749.24.749.72 0 .16-.019.352-.058.576.372.48.788.72 1.248.72.205 0 .544-.072 1.018-.216.474-.144.845-.216 1.114-.216.23 0 .46.04.691.12.243-.224.365-.6.365-1.128 0-1.056-.013-1.528-.039-1.416l.691.864c.244-.368.365-.6.365-.696a.854.854 0 0 0-.019-.168l.672 1.272c.102-.048.32-.232.653-.552.256-.24.493-.36.71-.36.103 0 .211.024.327.072a.645.645 0 0 0-.02.168c0 .096.122.32.365.672.192-.112.301-.296.327-.552.012-.016.019-.256.019-.72-.295-.304-.48-.456-.557-.456a.263.263 0 0 0-.134.048V.571h1.363c.051.336.077.64.077.912 0 1.2-.589 1.888-1.767 2.064l-.345.408c.192.304.492.456.902.456.845 0 1.222-.008 1.133-.024a7.616 7.616 0 0 0-.058 1.008c0 .32.019.82.058 1.5.038.68.057 1.188.057 1.524 0 1.408-.358 2.328-1.075 2.76.691.064 1.037.576 1.037 1.536 0 .176-.013.452-.038.828-.026.376-.039.652-.039.828 0 .24.019.448.058.624Zm-9.85.84a.67.67 0 0 1-.345.12c-.218 0-.404-.232-.557-.696-.154-.464-.301-.696-.442-.696l1.344 1.272Zm-2.035.432H9.318c-.025-.48.007-.828.096-1.044.09-.216.288-.436.595-.66.346.624.788.936 1.325.936a.94.94 0 0 0 .365-.072v.84Zm.691-6.792c-.243-.352-.365-.576-.365-.672 0-.064.007-.12.02-.168h-.346v.84h.691ZM40.441-.965c.039.144.058.272.058.384 0 .32-.192.584-.576.792-.512.288-.806.472-.883.552.294.32.486.48.576.48a.18.18 0 0 0 .115-.048c.038.144.058.264.058.36 0 .368-.205.552-.615.552-.064 0-.173-.008-.326-.024a3.666 3.666 0 0 0-.346-.024c-.435 0-.717.144-.845.432l-.345-.432c-.231.64-.544.936-.941.888-.358-.16-.723-.312-1.094-.456-.436-.144-.794 0-1.076.432.384.496 1.056.768 2.016.816 1.063.064 1.773.232 2.132.504.089.528-.167.904-.768 1.128-.282.112-.871.208-1.767.288-.653.08-.979.2-.979.36 0 .224.48.64 1.44 1.248h.691c.077 1.12-.192 1.84-.806 2.16-.039.016-.698.16-1.978.432-.857.176-1.427.608-1.709 1.296.205 1.168 1.005 1.752 2.4 1.752.192 0 .429-.008.711-.024.025.432-.32.72-1.037.864l-.346-.432c-.243.368-.364.6-.364.696 0 .416.198.624.595.624.601 0 .87-.008.806-.024-.038.256-.387.404-1.046.444-.659.04-.989.204-.989.492 0 .192.102.456.307.792h.691l-3.456.432a5.05 5.05 0 0 1-.23-1.584c0-.608.102-1.496.307-2.664.205-1.168.307-2 .307-2.496 0-1.488-.704-2.408-2.112-2.76l1.037-.864c-.102-.304-.301-.456-.595-.456-.064 0-.163.008-.298.024a2.78 2.78 0 0 1-.297.024.651.651 0 0 1-.192-.024c0-.176.189-.356.566-.54.378-.184.567-.42.567-.708 0-.144-.032-.304-.096-.48-.192-.32-.506-.48-.941-.48-.09 0-.231.008-.423.024a5.656 5.656 0 0 1-.422.024c-.115 0-.218-.008-.307-.024v-.864a2.24 2.24 0 0 1 .345-.024c.103 0 .266.012.49.036.224.024.394.036.509.036.499 0 .864-.16 1.094-.48l-1.037-1.296c-.179.048-.281.216-.307.504-.025.288-.089.432-.192.432a.495.495 0 0 1-.211-.072h-1.382c.179-.208.288-.52.326-.936.013-.096.026-.44.038-1.032 0-.832.224-1.328.672-1.488-.012.576.34 1.056 1.056 1.44.807.432 1.268.816 1.383 1.152l1.037-.864c.46.208.691.696.691 1.464 0 .112-.007.292-.019.54-.013.248-.02.428-.02.54 0 .864.359 1.32 1.076 1.368.294-.208.524-.56.691-1.056.23-.672.371-1.048.422-1.128.205-.336.525-.48.96-.432-.179-.112-.288-.296-.326-.552-.013-.08-.019-.328-.019-.744.332 0 .524-.008.576-.024a.622.622 0 0 0 .46-.408v-1.296l1.037 1.296c.192-.112.307-.296.346-.552v-.744l3.129.432Zm-4.857 12.984h-1.383v-.864c.154-.032.346.044.576.228.231.184.416.276.557.276.077 0 .16-.024.25-.072v.432ZM56.973 6.283c.051-.016-.205-.024-.768-.024-.295 0-.487.152-.576.456v.816c-.205-.288-.436-.432-.692-.432-.128 0-.307.052-.537.156-.231.104-.397.156-.499.156-.244 0-.448-.232-.615-.696l-.998 1.248.672.84c.128-.304.365-.456.71-.456.717 0 1.037.008.96.024l.327.432c.089-.304.281-.456.576-.456.576 0 .832.008.768.024-.448.72-1.114 1.24-1.997 1.56-.589.224-1.466.4-2.631.528-1.331.16-2.233.296-2.707.408-.243.24-.365.616-.365 1.128 0 1.04.007 1.504.02 1.392-.192-.576-.724-.864-1.594-.864-.141 0-.275.008-.403.024-.218.144-.327.56-.327 1.248.039.032.173.208.404.528.153.224.307.336.46.336a.459.459 0 0 0 .135-.024c.051.144.077.28.077.408 0 .288-.148.584-.442.888-.371.4-.582.664-.634.792-.524 0-1.049.008-1.574.024-.576-.048-.832-.472-.768-1.272a.854.854 0 0 0 .019-.168c0-.096-.121-.32-.365-.672.244-.112.365-.352.365-.72 0-.704-.006-1.024-.019-.96.55 0 .883-.136.998-.408-.332-.064-.576-.208-.729-.432-.09-.128-.183-.384-.279-.768-.096-.384-.208-.68-.336-.888a.464.464 0 0 0 .135.024c.077 0 .256-.144.537-.432-.012-.272-.102-.736-.268-1.392-.154-.608-.231-1.064-.231-1.368 0-.72.391-1.192 1.171-1.416a.645.645 0 0 0 .02-.168c0-.096-.116-.32-.346-.672h-.672a.548.548 0 0 1-.019-.144c0-.096.115-.328.345-.696-.025-.048-.166-.216-.422-.504-.179-.192-.269-.384-.269-.576 0-.048.007-.104.019-.168.09-.224.237-.36.442-.408h.576c-.102.016.448.024 1.651.024.768 0 1.325-.144 1.671-.432-.282-.304-.461-.456-.538-.456a.297.297 0 0 0-.115.024l.653-.84c-.09-.048-.301-.224-.634-.528-.256-.24-.486-.36-.691-.36a.765.765 0 0 0-.327.072.863.863 0 0 0 .02-.168c0-.096-.122-.32-.365-.672-.103.048-.314.232-.634.552-.256.24-.493.36-.71.36a.854.854 0 0 1-.327-.072l-.326-1.248h9.331c.026.128-.022.328-.144.6-.121.272-.182.464-.182.576 0 .192.109.352.326.48.448-.368.826-.552 1.133-.552.256 0 .512.136.768.408.256.336.512.664.768.984l.672 1.248c.064-.016-.192-.024-.768-.024-.282 0-.467.144-.557.432.512 0 .89.288 1.133.864.179.544.358 1.096.538 1.656v.816Zm-2.343-.816c-.243.096-.48.144-.71.144-.538 0-1.2-.424-1.987-1.272-.788-.848-1.45-1.272-1.988-1.272-.307 0-.633.104-.979.312v2.904h.999c.23.368.345.592.345.672 0 .064-.006.12-.019.168h1.344l-.346-.408c.205-.64.666-1.032 1.383-1.176.051-.016.704-.04 1.958-.072Zm-9.005 10.416v-.408h-.998l.998.408ZM72.102-1.037l-1.363-.432h1.363v.432Zm-2.381 3.384-1.363-.408h1.363v.408Zm3.053 13.152-.326.432-.691-.84c-.244.576-.416.936-.519 1.08-.166.256-.448.456-.845.6l-.672-.84c-.089.304-.281.456-.576.456-.576 0-.838-.008-.787-.024l-.326-.432c-.243.368-.365.6-.365.696 0 .048.006.096.019.144h-.672a.548.548 0 0 1-.019-.144c0-.096.115-.328.346-.696a.789.789 0 0 0-.192-.024c-.218 0-.631.168-1.239.504-.608.336-1.123.504-1.545.504-.256 0-.506-.048-.749-.144-.282.144-.519.216-.711.216-.473 0-.8-.488-.979-1.464-.217-1.184-.448-1.896-.691-2.136a.458.458 0 0 0 .134.024c.077 0 .263-.152.557-.456l-.691-.84c-.282.304-.461.456-.538.456a.345.345 0 0 1-.134-.024l.672-.864c-.474-.384-.71-.936-.71-1.656 0-.144.012-.296.038-.456.141-.144.435-.264.883-.36.397-.064.666-.232.807-.504-.128-.288-.372-.432-.73-.432-.73 0-1.05.008-.96.024.154-.224.23-.488.23-.792 0-.192-.048-.516-.144-.972-.096-.456-.144-.812-.144-1.068 0-.192.02-.384.058-.576-.09.016.23.024.96.024.358 0 .602-.144.73-.432-.308-.592-.749-.888-1.325-.888-.115 0-.237.008-.365.024V1.411c.038-.96.179-1.664.422-2.112.32-.608.858-.864 1.613-.768C63.84-.301 65.197.267 66.669.235c.243-.368.364-.6.364-.696a.854.854 0 0 0-.019-.168c.269.32.544.48.826.48.32 0 .717-.228 1.19-.684.474-.456.794-.684.96-.684.307 0 .557.44.749 1.32h.691a.474.474 0 0 0-.038.168c0 .096.121.328.365.696h.691c.038.192.057.36.057.504 0 .32-.118.56-.355.72-.237.16-.477.312-.72.456l.672-.84L70.739.235c-.243.352-.365.576-.365.672 0 .064.007.12.019.168h-.672a.645.645 0 0 0 .02-.168c0-.096-.122-.32-.365-.672l-1.498.864c-.537.4-.825.96-.864 1.68.077-.016-.249-.024-.979-.024-.346 0-.589.152-.73.456v1.68l6.125.864v.84c.077-.016-.249-.024-.979-.024-.346 0-.589.152-.73.456.167.256.442.424.826.504.435.08.73.192.883.336-.038.256-.345.412-.921.468-.576.056-.864.3-.864.732 0 .144.025.312.076.504-.32-.256-.918-.292-1.795-.108-.877.184-1.52.076-1.929-.324-.039.144-.192.48-.461 1.008-.192.4-.288.752-.288 1.056 0 .16.019.32.057.48l.346.432c-.179.112-.288.296-.326.552-.013.08-.02.32-.02.72.295.304.48.456.557.456a.464.464 0 0 0 .135-.024c.179-.112.288-.304.326-.576v-.696h.576c.218.032.365.168.442.408.153-.304.32-.456.499-.456.115 0 .288.084.518.252.231.168.403.252.519.252.192 0 .358-.152.499-.456l3.398 2.952ZM88.633 14.131c.039.72-.172 1.264-.633 1.632-.384.304-.909.456-1.575.456-.678 0-1.28-.144-1.804-.432-.461-.704-.692-1.592-.692-2.664 0-.208.007-.432.02-.672l.345-.408c-.23-.144-.345-.56-.345-1.248l.345-.432c-.307-.416-.761-.624-1.363-.624-.358 0-.813.08-1.363.24-.423.128-.851.256-1.287.384v2.52c.064-.016-.192-.024-.768-.024-.281 0-.467.144-.556.432.089.288.275.432.556.432.576 0 .832-.008.768-.024-.153.592-.582.888-1.286.888-.166 0-.422-.016-.768-.048a9.236 9.236 0 0 0-.768-.048c-.192 0-.365.016-.518.048a.31.31 0 0 0 .038-.144c0-.096-.122-.328-.365-.696-.243.368-.365.6-.365.696a.3.3 0 0 0 .039.144.772.772 0 0 1-.365.12c-.448 0-.672-.456-.672-1.368 0-.144.006-.28.019-.408v-1.68c.141.08.269.12.384.12.218 0 .403-.184.557-.552.218-.496.352-.768.403-.816a1.68 1.68 0 0 0 .077-.456c0-.336-.186-.584-.557-.744-.499-.224-.787-.384-.864-.48V6.619a.459.459 0 0 1 .135-.024c.076 0 .256.144.537.432.243-.16.365-.456.365-.888 0-.896-.006-1.296-.019-1.2-.039-.032-.173-.208-.403-.528-.167-.208-.32-.312-.461-.312a.515.515 0 0 0-.154.024V2.875c.179.208.359.312.538.312.141 0 .326-.096.557-.288.281-.256.473-.408.576-.456V1.195l1.152-.048c.396-.08.684-.344.864-.792-.167-.272-.503-.412-1.008-.42-.506-.008-.842-.14-1.008-.396.102-.304.32-.456.652-.456.192 0 .576.08 1.152.24.576.16 1.024.24 1.344.24.487 0 .884-.152 1.191-.456.307-.496.601-.744.883-.744.23 0 .624.328 1.181.984.557.656 1.072.984 1.545.984.333 0 .692-.128 1.076-.384.038.032.172.208.403.528.153.224.307.336.461.336a.458.458 0 0 0 .134-.024.548.548 0 0 1 .019.144c0 .096-.121.32-.365.672.154.288.352.432.596.432.153 0 .339-.056.556-.168.18-.08.352-.168.519-.264l-.672.84c.563.944.845 1.704.845 2.28 0 .32-.058.816-.173 1.488a.796.796 0 0 1-.269.048c-.243 0-.579-.22-1.008-.66-.429-.44-.765-.66-1.008-.66-.23 0-.467.144-.71.432.153.224.364.4.633.528.231.112.461.216.691.312v1.656c.09-.016-.224-.024-.94-.024-.346 0-.589.144-.73.432-.026.576.198.864.672.864h.269c.384 0 .627.136.729.408.768-.304 1.236-.456 1.402-.456.09 0 .179.008.269.024.013.304-.109.608-.365.912-.205.256-.416.512-.634.768.461.304.749.512.864.624.192.224.352.568.48 1.032l-1.67 1.248.998 1.272c.231-.368.346-.6.346-.696a.548.548 0 0 0-.019-.144h.345ZM82.95.787l-.326-.432c-.051.576-.384.864-.999.864a3.65 3.65 0 0 1-.345-.024h-.327c-.614 0-.947.28-.998.84L82.95.787Zm.999 3.744c-.064-1.136-.903-1.704-2.516-1.704-.217 0-.486.016-.806.048.077.576-.179.864-.768.864a.644.644 0 0 1-.25-.048c.487.016.788.376.903 1.08.128.8.384 1.28.768 1.44l1.421-.576c.537-.272.953-.64 1.248-1.104ZM105.126 3.139l-1.689 1.272c.243.368.364.6.364.696a.854.854 0 0 1-.019.168l-.691-.864c-.166.048-.262.212-.288.492-.026.28-.09.42-.192.42a.524.524 0 0 1-.192-.048 5.45 5.45 0 0 1-.48.024c-.333 0-.586-.096-.758-.288-.173-.192-.324-.536-.452-1.032l.327-.408a63.823 63.823 0 0 1-1.383-.84c-.576-.304-1.075-.456-1.497-.456-.423 0-.819.144-1.191.432-.243.368-.364.6-.364.696 0 .048.006.104.019.168-.141.016-.323-.064-.547-.24-.224-.176-.407-.264-.548-.264a.532.532 0 0 0-.249.072c-.231.208-.346.432-.346.672 0 .16.064.404.192.732.128.328.192.596.192.804 0 .112-.013.224-.038.336l-1.018-1.272c-.243.224-.365.464-.365.72 0 .208.112.516.336.924.224.408.343.708.356.9.268-.144.486-.216.652-.216.256 0 .384.264.384.792v.528c0 .544.109.888.327 1.032l-1.69.84c.039.032.173.208.403.528.167.224.32.336.461.336a.515.515 0 0 0 .154-.024c.038.576-.186.864-.672.864h-.288c-.384 0-.634.136-.749.408.358-.032.576.112.653.432.025.304.061.608.105.912.045.304.247.424.605.36l.346-.432-.346-.408c0-.256.122-.4.365-.432.243-.032.48-.056.71-.072.231-.112.327-.368.288-.768.192.064.493.376.903.936.371.512.678.768.921.768.282 0 .576-.288.884-.864.217.096.416.144.595.144.409 0 .736-.256.979-.768.102-.208.256-.704.461-1.488v-.432c.256.256.537.384.845.384.204 0 .521-.084.95-.252.429-.168.771-.252 1.027-.252.192 0 .384.04.576.12l-.345 2.976a.301.301 0 0 1-.116.024c-.076 0-.262-.152-.556-.456-.026.592-.301.888-.826.888-.077 0-.192-.008-.346-.024a3.629 3.629 0 0 0-.345-.024c-.423 0-.711.144-.864.432.32.304.787.456 1.401.456 1.242 0 1.792-.008 1.652-.024-.205.032-.423.352-.653.96-.231.608-.506.912-.826.912-.153 0-.339-.056-.557-.168-.87-.496-1.99-.648-3.36-.456-1.984.272-3.046.408-3.187.408-1.113-.048-1.984-.6-2.611-1.656.371.064.582-.152.634-.648.064-.592.192-.944.384-1.056-.295-.304-.48-.456-.557-.456a.293.293 0 0 0-.115.024c-.18.112-.288.304-.327.576-.013.064-.019.296-.019.696a1.217 1.217 0 0 1-.422.096c-.256 0-.448-.148-.576-.444-.128-.296-.25-.604-.365-.924l.345-.408c-.332 0-.537-.12-.614-.36-.038-.112-.061-.4-.067-.864-.007-.464-.119-.768-.336-.912l1.017-.84c-.089-.24-.236-.376-.441-.408-.026-.016-.218-.024-.576-.024a.548.548 0 0 1-.019-.144c0-.096.121-.328.364-.696-.243-.112-.364-.352-.364-.72 0-.736.006-1.064.019-.984a.345.345 0 0 0 .134.024c.077 0 .256-.144.538-.432a8.737 8.737 0 0 1-.135-1.392c0-.816.276-1.632.826-2.448.23-.432.461-.648.691-.648.103 0 .279.056.528.168.25.112.464.168.643.168.167 0 .333-.032.5-.096.332-.24.723-.76 1.171-1.56.345-.64.717-.96 1.113-.96.308 0 .679.128 1.114.384-.013-.08-.019.248-.019.984 0 .368.121.608.365.72l.672-.84c-.18-.112-.288-.304-.327-.576-.013-.064-.019-.296-.019-.696.23-.304.589-.456 1.075-.456.986 0 1.421.008 1.306.024a.648.648 0 0 1 .019.168c0 .096-.115.32-.346.672l2.804 1.344c1.062.64 1.593 1.608 1.593 2.904Zm-5.433 14.016h-2.708c.154-.288.564-.448 1.229-.48.743-.032 1.235-.16 1.479-.384v.864ZM120.371-1.541c-.166.56-.429.84-.787.84-.179 0-.493-.096-.941-.288-.448-.192-.8-.288-1.056-.288-.218 0-.422.048-.614.144v-.84l3.398.432Zm1.363 16.536a1.985 1.985 0 0 0-.307-.024c-.422 0-.989.228-1.699.684-.711.456-1.245.684-1.603.684-.384 0-.768-.168-1.152-.504.038-.272.281-.424.729-.456.512-.048.839-.176.979-.384a.51.51 0 0 0 .442.216c.358 0 .774-.216 1.248-.648l.346-.408c-.192-.864-.621-1.296-1.287-1.296-.205 0-.499.052-.883.156-.384.104-.634.156-.749.156-.294 0-.441-.184-.441-.552 0-.32.102-.8.307-1.44l-2.381-3.408c-.218-.032-.49.18-.816.636-.326.456-.566.684-.72.684-.166 0-.333-.152-.499-.456-.154.304-.32.456-.499.456-.116 0-.288-.084-.519-.252-.23-.168-.403-.252-.518-.252-.179 0-.346.152-.499.456.716.368 1.075 1.024 1.075 1.968 0 .224-.019.56-.058 1.008a13.06 13.06 0 0 0-.057 1.008c0 .256.019.488.057.696.09.016-.288.024-1.133.024-.409 0-.71-.152-.902-.456a.548.548 0 0 1-.019-.144c0-.096.121-.328.365-.696-.269-.08-.717-.312-1.344-.696-.551-.336-1.012-.528-1.383-.576.243-.96.365-1.552.365-1.776 0-.112-.006-.232-.019-.36-.295-.288-.48-.432-.557-.432a.458.458 0 0 0-.134.024l.691-.864c-.295-.288-.48-.432-.557-.432a.458.458 0 0 0-.134.024l2.054-1.272c-.294-.304-.48-.456-.557-.456a.458.458 0 0 0-.134.024v-.432l1.017.864 1.018-1.704c-.154-.064-.474-.32-.96-.768-.41-.352-.742-.528-.998-.528-.269 0-.519.152-.749.456a.854.854 0 0 1-.019-.168c0-.096.121-.328.364-.696a.622.622 0 0 0-.46-.408h-.576c-.013.064-.02-.264-.02-.984 0-.368.122-.608.365-.72l1.363.432c.116-.176.269-.584.461-1.224.167-.528.352-.832.557-.912.013.064.019.12.019.168 0 .096-.121.328-.365.696.218.24.653.272 1.306.096.653-.176 1.126-.072 1.421.312-.154.192-.371.288-.653.288-.077 0-.189-.008-.336-.024a3.343 3.343 0 0 0-.317-.024c-.435 0-.678.344-.729 1.032-.013.576.256.864.806.864.064 0 .154-.008.269-.024h.269c.499 0 .748.24.748.72 0 .16-.019.352-.057.576.371.48.787.72 1.248.72.205 0 .544-.072 1.017-.216.474-.144.845-.216 1.114-.216.23 0 .461.04.691.12.243-.224.365-.6.365-1.128 0-1.056-.013-1.528-.038-1.416l.691.864c.243-.368.365-.6.365-.696a.863.863 0 0 0-.02-.168l.672 1.272c.103-.048.32-.232.653-.552.256-.24.493-.36.711-.36a.85.85 0 0 1 .326.072.648.648 0 0 0-.019.168c0 .096.121.32.365.672.192-.112.3-.296.326-.552.013-.016.019-.256.019-.72-.294-.304-.48-.456-.557-.456a.263.263 0 0 0-.134.048V.571h1.363c.051.336.077.64.077.912 0 1.2-.589 1.888-1.766 2.064l-.346.408c.192.304.493.456.902.456.845 0 1.223-.008 1.133-.024a7.806 7.806 0 0 0-.057 1.008c0 .32.019.82.057 1.5.039.68.058 1.188.058 1.524 0 1.408-.359 2.328-1.075 2.76.691.064 1.036.576 1.036 1.536 0 .176-.012.452-.038.828-.026.376-.038.652-.038.828 0 .24.019.448.057.624Zm-9.849.84a.672.672 0 0 1-.346.12c-.218 0-.403-.232-.557-.696-.153-.464-.301-.696-.441-.696l1.344 1.272Zm-2.036.432h-2.38c-.026-.48.006-.828.096-1.044.089-.216.288-.436.595-.66.345.624.787.936 1.325.936a.934.934 0 0 0 .364-.072v.84Zm.692-6.792c-.244-.352-.365-.576-.365-.672 0-.064.006-.12.019-.168h-.346v.84h.692ZM137.555 14.875h-.672a1.68 1.68 0 0 0 .077-.456c0-.288-.141-.528-.423-.72-.409-.288-.633-.464-.672-.528-.358.576-.851.864-1.478.864-.371 0-.973-.144-1.805-.432-.832-.288-1.44-.432-1.824-.432-.089.512-.403.8-.941.864a42.7 42.7 0 0 1-1.401.072c-.487.128-.73.536-.73 1.224 0 .112.007.24.019.384h-.672v-.696c-.038-.272-.153-.464-.345-.576a.523.523 0 0 0-.327-.12c-.128 0-.294.096-.499.288-.205.192-.352.288-.441.288-.154 0-.295-.152-.423-.456-.153.32-.32.48-.499.48-.192 0-.422-.22-.691-.66-.269-.44-.442-.66-.519-.66 2.112-.416 3.476-1.264 4.09-2.544-.09-.24-.243-.384-.461-.432h-.557v-.408h.672a.593.593 0 0 0-.019.144c0 .096.122.328.365.696a.297.297 0 0 0 .115.024c.077 0 .263-.152.557-.456a80.439 80.439 0 0 0-.442-1.176c-.204-.432-.46-.648-.768-.648-.14 0-.3.04-.48.12l-.691-2.544h.576a.69.69 0 0 0 .442-.408v-.72c-.039-.256-.147-.44-.327-.552h-.345a2.002 2.002 0 0 1-.077-.504c0-.464.285-.8.854-1.008.57-.208.855-.44.855-.696 0-.192-.09-.448-.269-.768-.294.304-.48.456-.557.456-.038 0-.073-.02-.105-.06a.207.207 0 0 1-.048-.132c0-.096.121-.328.364-.696a.354.354 0 0 1 .135-.024c.077 0 .256.152.537.456.244-.144.365-.32.365-.528 0-.192-.115-.432-.345-.72-.231-.288-.346-.44-.346-.456.205-.368.57-.472 1.094-.312.743.224 1.133.336 1.172.336.345-.048.492-.48.441-1.296-.141-.016.41-.024 1.651-.024.615 0 1.082.152 1.402.456V.883a.202.202 0 0 0-.134-.048c-.077 0-.256.152-.538.456.55.048.982.26 1.296.636.314.376.47.884.47 1.524 0 .256-.025.528-.076.816.102-.016-.276-.024-1.133-.024-.41 0-.711.152-.903.456.231.592.653.888 1.268.888.153 0 .377-.016.672-.048.294-.032.512-.048.652-.048.18 0 .333.016.461.048l.691 3.816c.09-.016-.288-.024-1.132-.024-.423 0-.724.152-.903.456-.064.576.058 1.024.365 1.344.333.256.659.512.979.768h1.709l-1.018.864c.768.4 1.165.616 1.191.648.333.288.499.776.499 1.464Zm-1.018.84c-.102.288-.339.524-.71.708a2.643 2.643 0 0 1-1.19.276c-1.037 0-1.536-.464-1.498-1.392l3.398.408Zm-11.539.432-1.017-.432h1.017v.432Zm6.451-6.36c-.268-1.184-.403-1.952-.403-2.304 0-.24.019-.608.058-1.104l-.672-.84c.051.208.077.4.077.576 0 .464-.263.924-.788 1.38-.524.456-.787.844-.787 1.164 0 .304.16.68.48 1.128.307.304.679.456 1.114.456.409 0 .717-.152.921-.456Zm-1.363 3.384v-.408h-1.363l1.363.408ZM150.861 12.163c.025.24.038.44.038.6 0 .736-.346 1.232-1.037 1.488a1.332 1.332 0 0 1-.48.096c-.179 0-.413-.048-.701-.144-.288-.096-.489-.144-.604-.144-.32 0-.615.2-.884.6.218.304.564.456 1.037.456.973 0 1.402-.008 1.287-.024v1.248h-10.004c-.256-.672-.384-1.216-.384-1.632 0-.624.295-1 .884-1.128.563-.064 1.12-.12 1.67-.168.602-.064.902-.32.902-.768 0-.144-.025-.304-.076-.48l-.999.432c.013.064.019-.256.019-.96 0-.368-.115-.608-.345-.72h-.557a.578.578 0 0 0-.442.408v.432c-.345-.144-.556-.536-.633-1.176-.026-.192-.039-.776-.039-1.752.154.032.308.048.461.048.96 0 1.472-.432 1.536-1.296-.064-.464-.333-.816-.806-1.056a41.49 41.49 0 0 0-1.191-.6c-.038-.992.218-1.72.768-2.184.359-.272.992-.52 1.901-.744a64.052 64.052 0 0 0-.883-1.08c-.41-.496-.813-.744-1.21-.744-.192 0-.384.048-.576.144.064-.352.384-.712.96-1.08.512-.336.749-.808.711-1.416-.141-.016.403-.024 1.632-.024.601 0 1.056.152 1.363.456-.077.544-.474.84-1.19.888-.794.048-1.287.304-1.479.768.205.288.551.432 1.037.432.064 0 .166-.008.307-.024h.307c.474 0 .813.144 1.018.432v1.656c-.435-.272-.832-.408-1.19-.408-.397 0-.896.232-1.498.696-.678.528-1.229.848-1.651.96.358.592.934.888 1.728.888.179 0 .461-.016.845-.048.384-.032.665-.048.844-.048.218 0 .416.016.596.048l-.672.84c.716.144 1.075.72 1.075 1.728 0 .224-.023.58-.067 1.068-.045.488-.068.852-.068 1.092 0 .272.02.504.058.696h-.557c-.205.048-.352.184-.441.408a1.646 1.646 0 0 0-.058.432c0 .256.096.544.288.864.256.416.403.68.442.792 1.523-.864 3.436-1.296 5.74-1.296.423 0 .845.016 1.268.048ZM169.139-.917l-1.018-.432h1.018v.432Zm.653 17.52c.205.016-.563.024-2.304.024-.871 0-1.549-.152-2.035-.456-.09.304-.276.456-.557.456-.576 0-.832-.008-.768-.024-1.203-1.792-1.76-3.328-1.671-4.608-.089-.224-.236-.36-.441-.408h-.557c.013-.304-.109-.608-.365-.912a32.913 32.913 0 0 1-.633-.768c-.538.352-.858.904-.96 1.656l-.039 2.112c-.269-.272-.608-.408-1.017-.408-.397 0-.73.136-.999.408l-.326.408c.217.304.569.456 1.056.456.96 0 1.389-.008 1.286-.024v1.248h-2.342c.013-.576-.211-.864-.672-.864h-.288a3.064 3.064 0 0 1-.307.024c-.372 0-.615-.136-.73-.408l-.346-5.016c-.089.016.282.024 1.114.024.41 0 .71-.144.902-.432-.192-.304-.492-.456-.902-.456-.832 0-1.203.008-1.114.024V5.755c-.051.016.205.024.768.024.295 0 .487-.152.576-.456l-1.344-1.248c.154-.144.448-.256.884-.336.384-.064.646-.232.787-.504-.115-.128-.263-.416-.442-.864-.166-.368-.352-.632-.557-.792h-.672c-.012.08-.019-.24-.019-.96 0-.352.122-.592.365-.72l-.346-.408a1.525 1.525 0 0 1 1.076-.432c.268 0 .716.096 1.344.288.627.192 1.12.288 1.478.288.269 0 .531-.048.787-.144-.025.192-.272.352-.739.48-.467.128-.701.36-.701.696 0 .144.032.312.096.504l.672.816.327-.408.672 2.088c.934.08 1.587-.336 1.958-1.248l.73-2.544c.371-.896 1.03-1.304 1.977-1.224l3.667 1.248c-.115.64-.512 1.296-1.19 1.968-.576.56-1.152 1.128-1.728 1.704-.602.672-.902 1.36-.902 2.064 0 .304.051.616.153.936-.064.208-.326.528-.787.96-.397.368-.595.712-.595 1.032 0 .272.128.584.384.936.192-.112.301-.296.326-.552v-.696c.128.048.435.232.922.552.371.24.697.36.979.36.141 0 .288-.024.442-.072l1.344 3.336c-.231-.304-.583-.456-1.056-.456-.96 0-1.389.008-1.287.024a2.046 2.046 0 0 0-.134.648c0 .448.326.672.979.672.115 0 .32-.012.614-.036.295-.024.512-.036.653-.036.602 0 1.011.144 1.229.432l-.672 1.248 1.997 1.68Zm-3.341-15.432V-.101l-.998 1.272h.998ZM164.8 13.243h-1.671c.666.288 1.031.432 1.095.432.243 0 .435-.144.576-.432Z" style="fill:#fff;fill-rule:nonzero" transform="translate(-6.967 5.599)"/><path d="M190.576 17.035h.6L185.464.691h-.648l-5.688 16.344h.552l1.68-4.872h7.536l1.68 4.872Zm-9.048-5.376 3.6-10.536 3.6 10.536h-7.2ZM202.24-.629v6.96c-.648-.984-1.752-1.992-3.696-1.992-3.048 0-4.848 2.664-4.848 6.504 0 4.056 1.824 6.432 4.608 6.432 2.064 0 3.24-1.104 3.936-2.376l.072 2.136h.456V-.557l-.528-.072Zm-3.912 17.4c-2.496 0-4.08-2.16-4.08-5.928-.024-3.72 1.728-6.024 4.32-6.024 1.824 0 2.952 1.056 3.672 2.184v7.08c-.84 1.656-1.968 2.688-3.912 2.688ZM220.144 4.339c-1.704 0-3.096 1.128-4.104 2.856-.24-1.8-1.296-2.856-3.024-2.856-1.656 0-3.072 1.08-4.08 2.76l-.048-2.52h-.456v12.456h.528V7.819c1.032-1.8 2.352-3 4.032-3 1.704 0 2.568 1.2 2.568 3.36v8.856h.528V7.819c1.032-1.8 2.352-3 4.056-3 1.68 0 2.568 1.2 2.568 3.408v8.808h.528V8.179c0-2.4-1.08-3.84-3.096-3.84ZM229.048-.341c-.288 0-.48.24-.48.48s.192.456.48.456c.336 0 .504-.216.504-.456 0-.24-.168-.48-.504-.48Zm.264 4.92h-.528v12.456h.528V4.579ZM240.064 4.339c-1.968 0-3.456 1.104-4.584 2.784l-.048-2.544h-.456v12.456h.528V7.819c1.176-1.8 2.544-3 4.56-3 1.896 0 2.808 1.152 2.808 3.408v8.808h.528V8.179c0-2.448-1.056-3.84-3.336-3.84ZM259.456.691h-3.312v16.344h.552v-6.768h2.64c3.48 0 5.88-1.32 5.88-4.848 0-3.336-2.04-4.728-5.76-4.728Zm-.072 9.072h-2.688V1.195h2.76c3.384 0 5.184 1.152 5.184 4.248 0 3.24-2.136 4.32-5.256 4.32ZM274.984 14.395V8.107c0-2.448-1.08-3.768-3.72-3.768-1.2 0-2.328.288-3.6.816l.168.456c1.224-.504 2.328-.792 3.432-.792 2.4 0 3.192 1.176 3.192 3.336v1.488h-2.832c-2.952 0-4.896 1.392-4.896 3.936 0 2.208 1.392 3.696 3.744 3.696 1.848 0 3.168-.84 4.056-2.424.024 1.488.456 2.112 1.44 2.424l.144-.384c-.816-.288-1.128-.84-1.128-2.496Zm-4.512 2.376c-1.968 0-3.168-1.224-3.168-3.192 0-2.28 1.68-3.456 4.416-3.456h2.736v4.056c-.816 1.608-2.04 2.592-3.984 2.592ZM288.688 3.835c-.984.312-1.68.528-5.28.504-2.592 0-4.248 1.632-4.248 4.104 0 1.704.744 2.808 2.088 3.504-.792.504-1.368 1.176-1.368 2.064 0 1.152.984 1.992 2.88 1.992h2.112c1.992 0 3.168.912 3.168 2.424 0 1.776-1.32 2.832-4.44 2.832-3.216 0-4.392-.72-4.44-2.832h-.528c0 2.424 1.512 3.336 4.968 3.336 3.408 0 4.968-1.248 4.968-3.36 0-1.728-1.32-2.904-3.672-2.904h-2.088c-1.704 0-2.376-.648-2.376-1.56 0-.768.48-1.368 1.248-1.8a4.98 4.98 0 0 0 1.776.336c2.616 0 4.248-1.536 4.248-3.984 0-2.016-.96-3.216-2.496-3.744 1.872 0 2.928-.144 3.672-.336l-.192-.576Zm-5.256.984c2.304 0 3.72 1.344 3.72 3.672 0 2.232-1.392 3.504-3.696 3.504-2.04 0-3.768-1.2-3.768-3.552 0-2.112 1.296-3.624 3.744-3.624ZM300.112 10.219c0-3.48-1.464-5.88-4.536-5.88-2.88 0-4.776 2.472-4.776 6.576 0 4.032 1.944 6.36 4.968 6.36 1.608 0 2.736-.552 3.816-1.464l-.288-.408c-1.08.888-2.04 1.368-3.528 1.368-2.52 0-4.296-1.824-4.416-5.64h8.712a9.99 9.99 0 0 0 .048-.912Zm-.528.456h-8.232c.072-3.96 1.896-5.856 4.272-5.856 2.736 0 3.96 2.184 3.96 5.208v.648Z" style="fill:#fff;fill-rule:nonzero" transform="translate(-6.967 4.599)"/></svg>