<?xml version="1.0" encoding="UTF-8" standalone="no"?>
<!DOCTYPE svg PUBLIC "-//W3C//DTD SVG 1.1//EN" "http://www.w3.org/Graphics/SVG/1.1/DTD/svg11.dtd">
<svg width="100%" height="100%" viewBox="0 0 512 512" version="1.1" xmlns="http://www.w3.org/2000/svg" xmlns:xlink="http://www.w3.org/1999/xlink" xml:space="preserve" xmlns:serif="http://www.serif.com/" style="fill-rule:evenodd;clip-rule:evenodd;stroke-linecap:round;">
    <g id="Icon" transform="matrix(0.950461,0,0,0.950461,-903.515,208.055)">
        <rect x="950.607" y="-218.899" width="538.686" height="538.686" style="fill-opacity:0;"/>
        <g transform="matrix(1.05212,0,0,1.05212,950.607,-218.899)">
            <path d="M512,128.337C512,57.506 454.494,0 383.663,0L128.337,0C57.506,0 0,57.506 0,128.337L0,383.663C0,454.494 57.506,512 128.337,512L383.663,512C454.494,512 512,454.494 512,383.663L512,128.337Z"/>
            <clipPath id="_clip1">
                <path d="M512,128.337C512,57.506 454.494,0 383.663,0L128.337,0C57.506,0 0,57.506 0,128.337L0,383.663C0,454.494 57.506,512 128.337,512L383.663,512C454.494,512 512,454.494 512,383.663L512,128.337Z"/>
            </clipPath>
            <g clip-path="url(#_clip1)">
                <rect id="BG" x="0" y="0" width="512" height="512" style="fill:rgb(34,139,230);"/>
                <g id="Bang" transform="matrix(1.09403,0,0,1.09403,-1216.48,214.373)">
                    <g transform="matrix(1.11543,0.684878,-0.784464,0.735806,1329.55,200.7)">
                        <path d="M-6.26,-31.01L47.11,-64.6L63.6,-73.92L43.7,-22.52L38.25,-15.18L40.02,-8.38L62.77,-9.68L138.02,-33.51L147,-34.2L85.37,18.09L80.78,23.05L161.54,35.94L167.22,43.48L140.5,48.58L90.68,58.27L81.57,62.32L141.84,109.3L140.18,114.75L140.47,113.13L121.66,117.49L72.42,102.36L59.21,105.71L116.8,162.51L28.23,135.73L3.05,131.7L17.03,150.77L43.16,184.01L54.15,206.88L60.16,224.39L58.05,226.76L34.01,213.59L-35.95,167.03L-48.43,160.62L-48.72,163.04L-53.43,179.93L-73.42,247.14L-73.64,231.34L-88.46,196.92L-98.95,169.74L-104.47,159.03L-147.28,231.44L-154.6,242.16L-155.84,237.5L-139.26,153.7L-141.92,138.61L-221.32,186.86L-242.51,191.52L-195.78,125.04L-180.62,110.99L-276.21,125.47L-295.02,121.78L-211.5,65.37L-195.64,55.47L-308.26,26.29L-198.43,16.91L-181.82,7.94L-200.12,-7.62L-265.07,-47.61L-276.47,-61.76L-150.54,-35.82L-125.86,-37.01L-129.43,-55.38L-165.69,-119.92L-172.61,-130.92L-136,-110.85L-67.89,-56.93L-60.02,-53.65L-47.82,-63.42L-9.37,-139.09L-12.53,-115.76L-7.21,-28.13" style="fill:rgb(230,73,128);"/>
                    </g>
                    <g transform="matrix(0.797104,0.489424,-0.56059,0.525818,1303.21,201.542)">
                        <path d="M-11.703,-19.229L41.819,-62.621L60.899,-77.76L43.7,-22.52L38.25,-15.18L40.02,-8.38L62.77,-9.68L138.02,-33.51L147,-34.2L85.37,18.09L80.78,23.05L161.54,35.94L167.22,43.48L140.5,48.58L90.68,58.27L81.57,62.32L141.84,109.3L140.18,114.75L140.47,113.13L121.66,117.49L72.42,102.36L59.21,105.71L116.8,162.51L28.23,135.73L3.05,131.7L17.03,150.77L36.827,189.905L47.817,212.775L53.827,230.285L51.717,232.655L27.677,219.485L-35.95,167.03L-48.43,160.62L-48.72,163.04L-53.43,179.93L-73.42,247.14L-73.64,231.34L-88.46,196.92L-98.95,169.74L-104.47,159.03L-147.28,231.44L-154.6,242.16L-155.84,237.5L-139.26,153.7L-141.92,138.61L-211.199,172.264L-232.389,176.924L-191.224,117.595L-187.701,102.903L-254.593,114.271L-273.403,110.581L-211.5,65.37L-207.061,52.357L-308.26,26.29L-198.43,16.91L-189.804,6.717L-200.12,-7.62L-265.07,-47.61L-276.47,-61.76L-150.54,-35.82L-125.86,-37.01L-129.43,-55.38L-161.237,-127.768L-168.157,-138.768L-136,-110.85L-73.333,-45.149L-65.463,-41.869L-53.263,-51.639L-14.813,-127.309L-17.973,-103.979L-12.653,-16.349" style="fill:rgb(239,137,174);"/>
                    </g>
                    <g transform="matrix(1.11543,0.684878,-0.784464,0.735806,1329.55,200.7)">
                        <path d="M-4.97,-27.75C5.8,-35.27 48.41,-68.44 58.72,-74.5C69.03,-80.55 59.78,-74.57 56.9,-64.08C54.01,-53.58 41.3,-20.53 41.42,-11.54C41.53,-2.55 40.18,-6.82 57.58,-10.13C74.99,-13.45 132.65,-29.89 145.85,-31.43C159.05,-32.97 146.49,-28.03 136.78,-19.38C127.07,-10.74 92.93,12.97 87.59,20.44C82.25,27.9 92.07,22.39 104.73,25.39C117.4,28.39 156.45,35.01 163.57,38.45C170.69,41.88 161.06,41.92 147.44,46.02C133.81,50.11 90.79,57.98 81.82,63C72.84,68.02 83.23,68.47 93.58,76.14C103.93,83.82 137.93,102.62 143.92,109.06C149.91,115.5 142.64,115.96 129.5,114.77C116.37,113.58 74.57,101.97 65.11,101.93C55.65,101.89 64.51,105.63 72.74,114.54C80.97,123.44 109.12,147.82 114.5,155.36C119.89,162.89 122.58,163.61 105.05,159.76C87.52,155.9 24.16,134.65 9.33,132.2C-5.5,129.75 7.76,131.4 16.06,145.05C24.35,158.71 54.53,202.58 59.08,214.14C63.64,225.7 59.91,222.38 43.41,214.41C26.9,206.45 -24.02,172.12 -39.95,166.32C-55.88,160.52 -47.34,166.79 -52.17,179.6C-57,192.4 -65.19,234.67 -68.95,243.16C-72.71,251.64 -69.06,243.34 -74.74,230.5C-80.41,217.67 -96.44,174.8 -103,166.14C-109.55,157.48 -105.49,165.63 -114.07,178.54C-122.65,191.46 -147.72,238.4 -154.47,243.65C-161.22,248.9 -156.9,226.49 -154.56,210.03C-152.22,193.56 -140.06,155.44 -140.45,144.86C-140.83,134.27 -139.75,139.17 -156.86,146.53C-173.97,153.88 -230.89,185.22 -243.11,189C-255.32,192.77 -239.93,181.81 -230.15,169.19C-220.36,156.57 -190.34,123.23 -184.4,113.26C-178.46,103.29 -177.56,107.55 -194.51,109.35C-211.45,111.15 -272.14,123.91 -286.06,124.05C-299.97,124.19 -291.16,120.16 -277.98,110.19C-264.81,100.21 -217.67,73.49 -206.99,64.2C-196.31,54.91 -198.73,60.31 -213.92,54.46C-229.1,48.6 -286.06,34.04 -298.1,29.06C-310.14,24.07 -304.39,27.65 -286.16,24.56C-267.93,21.48 -203.67,14.95 -188.73,10.53C-173.79,6.1 -182.25,9.24 -196.54,-1.98C-210.83,-13.21 -264.74,-47.75 -274.45,-56.82C-284.16,-65.89 -277.23,-59.62 -254.8,-56.4C-232.37,-53.18 -161.19,-39.28 -139.88,-37.51C-118.57,-35.74 -121.53,-31.41 -126.95,-45.8C-132.37,-60.19 -168.16,-111.8 -172.38,-123.86C-176.61,-135.92 -169.22,-128.85 -152.3,-118.17C-135.38,-107.5 -87.4,-69.75 -70.85,-59.8C-54.3,-49.85 -62.01,-45.98 -52.98,-58.47C-43.95,-70.97 -23.41,-125.67 -16.68,-134.77C-9.95,-143.87 -14.92,-130.81 -12.59,-113.07C-10.26,-95.33 -4.21,-41.95 -2.7,-28.31M-0.08,-29.7C10.63,-38.07 48.27,-73.85 57.57,-79.2C66.88,-84.56 58.2,-73.6 55.73,-61.83C53.27,-50.06 43.07,-17.11 42.79,-8.58C42.52,-0.06 37.54,-6.62 54.05,-10.66C70.57,-14.7 127.72,-30.96 141.87,-32.81C156.02,-34.67 148.22,-30.62 138.98,-21.77C129.74,-12.92 92.55,11.74 86.43,20.27C80.31,28.8 88.97,26.52 102.26,29.4C115.55,32.29 158.59,34.4 166.16,37.56C173.74,40.72 161.1,44.17 147.7,48.37C134.31,52.56 94.76,58.3 85.78,62.71C76.8,67.11 84.18,67.12 93.82,74.79C103.45,82.46 137.63,102.45 143.61,108.72C149.58,114.99 142.58,113.17 129.68,112.4C116.79,111.63 76.11,103.52 66.24,104.12C56.37,104.71 62.87,107.5 70.46,115.98C78.06,124.46 106.42,147.43 111.82,155.02C117.23,162.62 119.87,164.7 102.88,161.54C85.9,158.39 24.82,138.08 9.9,136.09C-5.02,134.11 5.1,135.95 13.36,149.65C21.62,163.35 54.32,207.89 59.45,218.29C64.59,228.7 61.45,221.08 44.17,212.08C26.89,203.08 -27.45,169.72 -44.25,164.28C-61.05,158.84 -52.93,166.22 -56.64,179.44C-60.35,192.66 -63.93,235.08 -66.5,243.61C-69.07,252.15 -66.5,244 -72.04,230.66C-77.58,217.31 -92.84,172.94 -99.75,163.55C-106.65,154.16 -104.88,161.25 -113.46,174.32C-122.04,187.39 -145.46,235.54 -151.23,241.97C-157,248.41 -149.92,228.59 -148.09,212.93C-146.25,197.27 -139.41,158.04 -140.22,148C-141.04,137.96 -136.3,145.6 -152.97,152.68C-169.65,159.76 -228.02,186.78 -240.27,190.47C-252.53,194.17 -236.01,187.42 -226.5,174.86C-216.99,162.3 -188.07,125.27 -183.21,115.12C-178.35,104.96 -180.5,112.55 -197.34,113.94C-214.19,115.34 -270.4,123.82 -284.27,123.48C-298.14,123.14 -294.06,121.84 -280.54,111.9C-267.02,101.96 -214.43,73.19 -203.13,63.85C-191.84,54.51 -196.1,61.55 -212.76,55.86C-229.42,50.17 -290.46,34.72 -303.09,29.69C-315.73,24.66 -307.75,28.52 -288.56,25.69C-269.36,22.86 -204.17,17.17 -187.91,12.7C-171.66,8.24 -177.24,10.58 -191.04,-1.12C-204.83,-12.82 -260.93,-48.18 -270.7,-57.51C-280.46,-66.84 -271.74,-61 -249.63,-57.09C-227.51,-53.19 -158.51,-35.63 -138.02,-34.05C-117.52,-32.48 -121.1,-32.84 -126.67,-47.65C-132.24,-62.46 -167.48,-110.7 -171.45,-122.91C-175.41,-135.11 -167.24,-131.4 -150.48,-120.87C-133.72,-110.33 -87.38,-70.03 -70.89,-59.69C-54.4,-49.34 -61.52,-46.51 -51.54,-58.77C-41.56,-71.04 -17.19,-123.97 -11.02,-133.3C-4.84,-142.63 -14.96,-131.69 -14.48,-114.77C-13.99,-97.86 -9.41,-46.74 -8.1,-31.83" style="fill:none;stroke:black;stroke-width:3.97px;"/>
                    </g>
                </g>
                <g id="Kreide" transform="matrix(1.1674,0,0,1.1674,-1206.77,199.556)">
                    <g transform="matrix(1.04356,0.133977,-0.133977,1.04356,1262.65,-107.011)">
                        <path d="M3.52,3.67L-94.59,269.85L-107.42,299.66L-101.03,317.47L-85.83,336.25L-70.08,332.22L-52.95,337.31L-30.58,335.63L80.45,150.39L108.49,95.01L124.73,63.24L122.5,41.6L121.36,34.94L119.4,24.29L78.66,2.02L65.96,-2.42L38.2,-7.99L29.41,-6.63L-3.04,1.43" style="fill:white;"/>
                    </g>
                    <g transform="matrix(0.908353,0.530898,-0.530898,0.908353,1280.05,-123.218)">
                        <path d="M9.53,12.26M9.53,12.26M5.06,27.91C11.58,22.42 17.72,18.32 26.57,4.37M5.26,32.14C12.27,24.23 21.6,11.53 28.16,3.16M12.64,38.28C19.57,24.51 28.7,21.25 33.8,7.61M9.37,35.15C17.6,26.68 28.18,14.81 34.4,6.14M17.18,40.14C23.75,34 32.32,22.78 43.25,7.34M12.53,45.09C22.85,36.28 27.63,26.83 47.47,5.69M22.99,47.67C29.19,41.52 33.32,29.03 60.95,5.14M23.19,45.75C32.71,32.87 46.4,18.52 59.46,6.72M32.45,47.81C38.93,44.66 43.47,26.64 65.4,7.82M31.22,48.97C36.81,43.17 45.73,30.36 68.52,4.38M39.1,54.22C47.79,39.21 54.83,29.52 76.15,7.65M37.24,52.32C48.46,39.29 63.26,26.09 79.7,4.07M43.49,51.8C54.1,44.01 64.75,32.55 90.86,4.37M44.76,55.38C53.78,42.39 65.43,35.3 90.28,7.17M53.7,60.44C66.17,45.32 71.83,37.62 95.25,4.5M56.89,55.26C65.21,46.3 72.4,37.4 95.93,10.12M67.81,56.01C73.25,50.35 83.67,33.16 102.89,12.76M67.13,55.29C81.45,40.78 92.48,26.79 106.79,11.59M75.72,56.6C91.24,41.93 96.85,35.31 117.02,14.35M77.36,55.08C90.28,42.03 102.96,26.26 113.49,14.49M90.39,51.78C107.65,40.47 110.55,28.08 123.05,14.73M93.4,51.49C101.86,44.52 105.03,33.96 123.99,17.52M110.32,40.16C118.31,34.46 123.01,28.91 129.18,23.36M107.68,43.9C114.6,35.73 119.99,31.44 128.33,22.65" style="fill:none;fill-rule:nonzero;stroke:rgb(206,212,218);stroke-width:1px;"/>
                    </g>
                    <g transform="matrix(1.04356,0.133977,-0.133977,1.04356,1264.4,-102.267)">
                        <path d="M0,0M0,0M-5.93,23.13C-4.16,19.16 -4.84,11.59 6.16,9.49M-7.34,21.93C-4.24,16.63 -1.56,12.32 2.62,8.91M-13.23,43.54C-7.03,32.47 -5.14,27.13 10.42,12.12M-15.8,42.08C-12.24,35.09 -4.25,29.72 8.19,13.81M-24.37,62.26C-11.03,50.86 -6.05,42.55 10.3,26.84M-21.89,62.16C-12.03,49.99 -2.85,39.81 9.71,22.23M-29.01,86.09C-16.43,65.37 -2.11,46.26 13.89,30.19M-29.18,82.97C-12.2,64.4 2.31,48.84 16.21,27.96M-33.15,99.09C-20.46,80.87 -3.91,62.78 26.34,35.13M-36.5,101.38C-21.62,88.36 -11.52,73.33 24.94,34.21M-46.65,123.09C-12.99,87.04 12.11,55.92 30.33,38.38M-42.12,122.89C-24.88,102.86 -4.81,79.34 32.92,37M-51.24,145.18C-13.19,99.7 23.43,60.23 41.67,37.67M-51.81,145.34C-19.79,108.06 12.37,70.34 36.34,42.75M-54.82,164.71C-23.94,120.84 18.31,75.2 46.68,45.75M-57.56,166.2C-38.14,141.07 -14.19,118.58 43.68,46.49M-67.45,184.81C-26.88,136.1 19.57,87.17 54.44,46.39M-65.67,186.33C-21.48,141.67 16.7,91.83 51.69,48.12M-73.04,208.09C-32.36,154.8 14.54,104.39 62.06,52.82M-72.87,206.13C-30.84,159.3 9.59,113 58.82,51.29M-77.79,229.05C-46.08,192.51 -22.08,156.37 69.62,53.97M-78.64,225.63C-45.73,183.18 -9.65,142.66 69.93,56.53M-89.91,248.33C-29.86,181.69 32.73,113.31 75.05,57.68M-86.8,246.83C-29.52,181.2 25.52,115.29 75.01,56.89M-92.46,262.47C-23.57,188.75 48.87,111.07 87.28,61.16M-93.37,264.75C-45.31,206.17 3.35,149.16 82.88,61.49M-107.53,296C-39.35,214.8 26.17,142.75 90.72,62.5M-105.35,294.31C-60.81,244.12 -17.47,192.82 93.11,65.67M-100.89,301.06C-29.31,218.66 43.05,138.24 98.29,69.16M-102.79,300.41C-32.6,225.01 31.89,149.09 99.81,65.76M-98.39,304.79C-19.05,212.64 64.43,117.47 123.13,52.28M-97.69,308.17C-28.99,223.98 39.48,143.75 124.67,53.13M-90.89,313.97C-26.05,233.3 46.49,156.96 109.1,86.65M-91.63,313.31C-17.51,226.31 58.01,137.97 108.12,82.53M-84.35,318.47C-25.61,246.48 35.01,171.67 87.78,118.03M-86.26,317.36C-28.72,251.94 30.23,185.06 88.84,116.79M-81.48,322.2C-41.33,276.35 -7.02,237.15 78.11,146.39M-81.04,324.74C-33.36,265.81 16.98,209.64 74.37,144.73M-72.63,325.27C-41.54,292.07 -12.9,261.43 54.56,183.42M-76.03,327.54C-49.98,297.65 -24.33,264.46 55.7,181.52M-68.09,329.92C-36.56,298.6 -12.03,266.22 37.5,218.99M-64.84,330.63C-38.14,298.9 -8.81,265.35 34.13,215.49M-54.95,330.66C-37.03,311.52 -17.73,285 16.44,255.96M-56.43,332.32C-39.38,309.98 -24.66,293.19 15.18,252.14M-41.1,329.09C-31.01,317.22 -22.82,304.9 -7.76,286.84M-44.41,332.59C-36.96,325.1 -29.66,313.09 -5.54,288.27" style="fill:none;stroke:rgb(206,212,218);stroke-width:1px;"/>
                    </g>
                    <g transform="matrix(0.908353,0.530898,-0.530898,0.908353,1280.05,-123.218)">
                        <path d="M93.69,4.29C103.26,5.66 114.21,7.74 119.37,11.74C124.53,15.74 125.21,23.53 124.64,28.31C124.06,33.08 121.22,36.96 115.92,40.4C110.61,43.83 101.59,46.57 92.8,48.91C84.01,51.25 73.09,54.22 63.18,54.44C53.28,54.66 42.31,52.86 33.37,50.23C24.42,47.61 15.22,42.5 9.53,38.69C3.83,34.87 -0.77,31.72 -0.79,27.34C-0.82,22.96 4.31,16.62 9.39,12.42C14.47,8.23 20.47,4.22 29.67,2.16C38.88,0.11 52.37,-0.7 64.6,0.07C76.84,0.85 95.94,5.43 103.09,6.81C110.23,8.2 107.83,8.44 107.45,8.37M20.27,10.01C26.75,6.04 34.78,-0.11 44.72,-1.22C54.66,-2.34 69.9,1.8 79.93,3.31C89.96,4.81 97.98,5.16 104.91,7.8C111.84,10.45 117.85,15.29 121.51,19.2C125.18,23.11 128.98,27.29 126.9,31.27C124.82,35.24 117.34,39.34 109.06,43.07C100.79,46.79 87.23,52.4 77.26,53.6C67.29,54.79 58.85,51.69 49.24,50.26C39.63,48.82 27.83,48.05 19.58,44.99C11.33,41.93 2.28,35.66 -0.26,31.9C-2.8,28.14 0.9,26.39 4.35,22.42C7.8,18.44 18.41,10.38 20.43,8.06C22.46,5.73 15.92,7.77 16.5,8.46" style="fill:none;fill-rule:nonzero;stroke:black;stroke-width:4.72px;"/>
                    </g>
                    <g transform="matrix(1.04356,0.133977,-0.133977,1.04356,1264.4,-102.267)">
                        <path d="M1.89,0.96C-13.57,45.47 -74.88,216.99 -92.26,266.09C-109.65,315.2 -104.82,286.13 -102.41,295.57C-99.99,305.02 -88.21,317.9 -77.78,322.78C-67.35,327.65 -50.19,329.41 -39.81,324.82C-29.43,320.24 -41.22,339 -15.51,295.28C10.21,251.55 97.17,100.71 114.46,62.47C131.76,24.23 103.76,70.64 88.26,65.85C72.76,61.05 36.28,44.7 21.46,33.7C6.65,22.69 3.05,5.66 -0.63,-0.18M-0.52,-0.99C-16.33,42.9 -77.04,212.63 -94.09,262.6C-111.13,312.57 -105.79,288.47 -102.8,298.83C-99.8,309.2 -87.37,320.53 -76.12,324.8C-64.88,329.06 -45.79,329.76 -35.3,324.44C-24.82,319.12 -38.28,335.74 -13.21,292.85C11.87,249.96 97.45,104.91 115.15,67.11C132.85,29.31 109.12,71.92 92.98,66.05C76.84,60.18 33.67,43.12 18.31,31.89C2.95,20.66 3.92,3.92 0.83,-1.34" style="fill:none;stroke:black;stroke-width:4.2px;"/>
                    </g>
                </g>
            </g>
        </g>
    </g>
</svg>
