<svg xmlns="http://www.w3.org/2000/svg" viewBox="0 0 1000 1000" class="qr__icon">
  <path
    d="M397.1 8.5h-317C41.5 8.5 10 39.9 10 78.6v316.9c0 38.7 31.5 70.1 70.1 70.1H397c38.7 0 70.1-31.5 70.1-70.1V78.6c.1-38.7-31.4-70.1-70-70.1zm0 397.2h-317c-5.6 0-10.2-4.6-10.2-10.2V78.6c0-5.6 4.6-10.2 10.2-10.2H397c5.6 0 10.2 4.6 10.2 10.2v316.9c0 5.6-4.5 10.2-10.1 10.2z"></path>
  <path
    d="M254.2 187.8H223c-18.8 0-34 15.2-34 34v31.1c0 18.8 15.2 34 34 34h31.1c18.8 0 34-15.2 34-34v-31.1c0-18.7-15.2-34-33.9-34zM956 892.5h-31.1c-18.8 0-34 15.2-34 34v31.1c0 18.8 15.2 34 34 34H956c18.8 0 34-15.2 34-34v-31.1c0-18.8-15.2-34-34-34zM397.1 534.4h-317c-38.7 0-70.1 31.5-70.1 70.1v316.9c0 38.7 31.5 70.1 70.1 70.1H397c38.7 0 70.1-31.5 70.1-70.1V604.5c.1-38.7-31.4-70.1-70-70.1zm0 397.2h-317c-5.6 0-10.2-4.6-10.2-10.2V604.5c0-5.6 4.6-10.2 10.2-10.2H397c5.6 0 10.2 4.6 10.2 10.2v316.9c0 5.6-4.5 10.2-10.1 10.2z"></path>
  <path
    d="M254.2 713.7H223c-18.8 0-34 15.2-34 34v31.1c0 18.8 15.2 34 34 34h31.1c18.8 0 34-15.2 34-34v-31.1c0-18.8-15.2-34-33.9-34zM602.9 465.6h316.9c38.7 0 70.1-31.5 70.1-70.1V78.6c0-38.7-31.5-70.1-70.1-70.1H602.9c-38.7 0-70.1 31.5-70.1 70.1v316.9c0 38.7 31.4 70.1 70.1 70.1zm0-397.2h316.9c5.6 0 10.2 4.6 10.2 10.2v316.9c0 5.6-4.6 10.2-10.2 10.2H602.9c-5.6 0-10.2-4.6-10.2-10.2V78.6c0-5.6 4.6-10.2 10.2-10.2z"></path>
  <path
    d="M745.8 286.9h31.1c18.8 0 34-15.2 34-34v-31.1c0-18.8-15.2-34-34-34h-31.1c-18.8 0-34 15.2-34 34v31.1c0 18.8 15.2 34 34 34zM763.3 961.5c0 16.6-13.4 30-30 30h-67.5c-16.6 0-30-13.4-30-30s13.4-30 30-30h67.5c16.6.1 30 13.5 30 30zM894.1 829.9c0 16.6-13.4 30-30 30h-168c-16.6 0-30-13.4-30-30s13.4-30 30-30h168.1c16.5 0 29.9 13.4 29.9 30zM683.1 669.6c0 16.6-13.4 30-30 30h-67.5c-16.6 0-30-13.4-30-30s13.4-30 30-30h67.5c16.6 0 30 13.4 30 30zM718.2 769.9c0 16.6-13.4 30-30 30h-89.8c-16.6 0-30-13.4-30-30s13.4-30 30-30h89.8c16.6.1 30 13.5 30 30zM803.5 763.3c-16.6 0-30-13.4-30-30v-67.5c0-16.6 13.4-30 30-30s30 13.4 30 30v67.5c0 16.5-13.5 30-30 30z"></path>
  <path
    d="M688.2 900.9c-16.6 0-30-13.4-30-30v-101c0-16.6 13.4-30 30-30s30 13.4 30 30v101c0 16.6-13.4 30-30 30zM960 818.3c-16.6 0-30-13.4-30-30v-224c0-16.6 13.4-30 30-30s30 13.4 30 30v224c-.1 16.5-13.5 30-30 30z"></path>
  <path
    d="M711.8 973.6v-42.1H602.9c-5.6 0-10.2-4.6-10.2-10.2V604.5c0-5.6 4.6-10.2 10.2-10.2h160.5c5.6 0 10.2 4.6 10.2 10.2v81.9h46.8c4.6 0 9 .7 13.1 2v-83.9c0-38.7-31.5-70.1-70.1-70.1H602.9c-38.7 0-70.1 31.5-70.1 70.1v316.9c0 38.7 31.5 70.1 70.1 70.1h112.7c-2.4-5.5-3.8-11.5-3.8-17.9z"></path>
</svg>
